<svg class="h-5 w-auto md:h-6" fill="none" height="100%" viewBox="0 0 22 22" width="100%" xmlns="http://www.w3.org/2000/svg" color="inherit" name="fair-launch"><path clip-rule="evenodd" d="m16.79 10.105 3.053-5.174-1.184-.698-4.276 7.247h3.897c-.17 3.577-1.662 5.296-3.054 6.155a6.4 6.4 0 0 1-2.98.925l-.042.001H5.5v1.375h6.715l.072-.001q.091-.002.248-.014a7.79 7.79 0 0 0 3.412-1.115c1.918-1.183 3.723-3.529 3.723-8.014v-.687z" fill="url(#FairLaunch_svg__a)" fill-rule="evenodd"></path><path clip-rule="evenodd" d="M9.812 2.061h-.025q-.027 0-.072.002a7.37 7.37 0 0 0-1.098.133 7.8 7.8 0 0 0-2.562.996C4.137 4.375 2.332 6.72 2.332 11.206v.687h2.88l-3.053 5.173 1.185.699 4.276-7.247H3.723c.17-3.577 1.661-5.297 3.054-6.156a6.4 6.4 0 0 1 2.98-.925h6.745V2.06z" fill="url(#FairLaunch_svg__b)" fill-rule="evenodd"></path><defs><linearGradient gradientUnits="userSpaceOnUse" id="FairLaunch_svg__a" x1="5.501" x2="21.141" y1="4.233" y2="18.516"><stop stop-color="#FFB0AB"></stop><stop offset="0.464" stop-color="#FF6D63"></stop><stop offset="1" stop-color="#FF4337"></stop></linearGradient><linearGradient gradientUnits="userSpaceOnUse" id="FairLaunch_svg__b" x1="2.159" x2="17.799" y1="2.061" y2="16.345"><stop stop-color="#FFB0AB"></stop><stop offset="0.464" stop-color="#FF6D63"></stop><stop offset="1" stop-color="#FF4337"></stop></linearGradient></defs></svg>