<svg class="h-5 w-auto md:h-6" fill="none" height="100%" viewBox="0 0 23 22" width="100%" xmlns="http://www.w3.org/2000/svg" color="inherit" name="maximize-returns"><path clip-rule="evenodd" d="M12.747 4.811H8.064V3.436h4.683c1.87 0 3.279.403 4.234 1.156.978.77 1.395 1.842 1.395 2.97s-.417 2.2-1.395 2.97c-.955.753-2.365 1.154-4.234 1.154H6.001v-1.375h6.746c1.698 0 2.76-.367 3.383-.858.601-.474.871-1.12.871-1.892 0-.768-.27-1.415-.871-1.89-.624-.491-1.686-.86-3.383-.86" fill="url(#MaximizeReturns_svg__a)" fill-rule="evenodd"></path><path clip-rule="evenodd" d="M18.376 19.936H6.001v-1.375h12.375z" fill="url(#MaximizeReturns_svg__b)" fill-rule="evenodd"></path><path clip-rule="evenodd" d="M18.376 15.811H6.001v-1.375h12.375z" fill="url(#MaximizeReturns_svg__c)" fill-rule="evenodd"></path><path d="m8.923 2.389.035 3.366-3.085-1.668z" fill="url(#MaximizeReturns_svg__d)" stroke="url(#MaximizeReturns_svg__e)" stroke-width="1.2"></path><defs><linearGradient gradientUnits="userSpaceOnUse" id="MaximizeReturns_svg__a" x1="6.001" x2="13.617" y1="3.436" y2="14.859"><stop stop-color="#FFB0AB"></stop><stop offset="0.464" stop-color="#FF6D63"></stop><stop offset="1" stop-color="#FF4337"></stop></linearGradient><linearGradient gradientUnits="userSpaceOnUse" id="MaximizeReturns_svg__b" x1="6.001" x2="6.303" y1="18.561" y2="21.278"><stop stop-color="#FFB0AB"></stop><stop offset="0.464" stop-color="#FF6D63"></stop><stop offset="1" stop-color="#FF4337"></stop></linearGradient><linearGradient gradientUnits="userSpaceOnUse" id="MaximizeReturns_svg__c" x1="6.001" x2="6.303" y1="14.436" y2="17.153"><stop stop-color="#FFB0AB"></stop><stop offset="0.464" stop-color="#FF6D63"></stop><stop offset="1" stop-color="#FF4337"></stop></linearGradient><linearGradient gradientUnits="userSpaceOnUse" id="MaximizeReturns_svg__d" x1="4.626" x2="10" y1="1.374" y2="6.297"><stop stop-color="#FFB0AB"></stop><stop offset="0.464" stop-color="#FF6D63"></stop><stop offset="1" stop-color="#FF4337"></stop></linearGradient><linearGradient gradientUnits="userSpaceOnUse" id="MaximizeReturns_svg__e" x1="4.626" x2="10" y1="1.374" y2="6.297"><stop stop-color="#FFB0AB"></stop><stop offset="0.464" stop-color="#FF6D63"></stop><stop offset="1" stop-color="#FF4337"></stop></linearGradient></defs></svg>