<svg class="absolute top-0 h-auto w-[700px] -translate-x-[50%] -translate-y-[40%] md:top-1/2 md:w-[1750px] md:-translate-x-[50%] md:-translate-y-[20%]" fill="none" height="100%" viewBox="0 0 1926 581" width="100%" xmlns="http://www.w3.org/2000/svg" color="inherit" name="electromagnetic-waves"><g opacity="0.5" stroke-miterlimit="10"><path d="M230.711 364.52c39.423 9.475 72.101 39.486 109.554 61.79 36.024 21.466 66.272 12.218 102.377-2.471 63.169-25.681 126.338-55.829 191.288-59.818 61.388-3.785 122.425-8.659 183.733-16.298 59.715-7.434 124.962-25.613 183.167 6.234 55.29 30.26 100.49 77.476 159.9 72.852 59.5-4.624 117.95-29.037 176.67-45.606 65.06-18.361 126.71-23.778 190.96 6.823 75.56 35.972 145.77 92.821 224.56 100.959" stroke="url(#electromagnetic-waves_svg__a)"></path><path d="M221.859 372.814c38.938 9.112 72.911 37.491 111.417 58.889 36.401 20.219 67 11.266 103.374-3.015 49.435-19.403 98.68-41.163 146.927-52.338 15.165-3.536 30.357-6.347 45.63-7.797 60.66-5.758 120.698-13.804 181.628-21.239 59.553-7.254 123.478-19.041 181.493 12.535 52.972 28.764 99.622 68.205 153.862 70.63 2.73.114 5.48.136 8.28 0 58.5-2.788 119.78-26.906 178.74-43.158 57.48-15.89 112.55-25.342 169.19-6.505 7.42 2.47 14.87 5.349 22.37 8.704 77.37 34.612 147.77 91.484 228.2 99.508" stroke="url(#electromagnetic-waves_svg__b)"></path><path d="M212.982 381.087c38.425 8.75 73.639 35.52 113.251 55.965 36.779 18.973 67.73 10.314 104.401-3.581 50.648-19.199 100.973-40.461 148.438-51.704 15.138-3.581 30.222-6.8 45.387-8.749 59.904-7.73 118.944-18.95 179.496-26.203 59.418-7.072 121.967-12.445 179.82 18.813 53.315 28.719 103.105 63.513 156.235 68.092 2.65.227 5.37.363 8.18.318 57.47-.975 121.61-24.798 180.82-40.688 57.31-15.504 112.57-28.334 169.4-10.676 7.56 2.357 15.14 5.077 22.72 8.273 79.17 33.23 149.76 90.125 231.85 98.058" stroke="url(#electromagnetic-waves_svg__c)"></path><path d="M204.102 389.361c37.939 8.387 74.367 33.57 115.112 53.064 37.103 17.771 68.458 9.384 105.399-4.148 51.89-18.995 103.24-39.804 149.949-51.069 15.111-3.65 30.114-7.254 45.171-9.724 59.149-9.679 117.191-24.096 177.365-31.145 59.256-6.913 120.455-5.848 178.12 25.115 53.642 28.674 106.562 58.753 158.612 65.553 2.59.34 5.29.59 8.04.612 56.45.839 123.45-22.667 182.9-38.216 57.17-15.119 112.63-31.349 169.62-14.847a263 263 0 0 1 23.07 7.82c81 31.847 151.75 88.787 235.49 96.584" stroke="url(#electromagnetic-waves_svg__d)"></path><path d="M195.227 397.656c37.426 8.024 75.069 31.598 116.974 50.162 37.4 16.57 69.214 8.432 106.425-4.692 53.158-18.768 105.533-39.146 151.433-50.411 15.111-3.718 29.979-7.707 44.928-10.699 58.393-11.628 115.436-29.218 175.233-36.086 59.094-6.732 118.971.748 176.447 31.416 53.963 28.629 110.013 53.971 160.953 63.015 2.54.453 5.19.793 7.94.929 55.37 2.607 125.28-20.559 185-35.746 57.04-14.733 112.68-34.363 169.84-19.04 7.82 2.108 15.62 4.511 23.44 7.389 82.84 30.465 153.73 87.45 239.13 95.134" stroke="url(#electromagnetic-waves_svg__e)"></path><path d="M186.348 405.929c36.94 7.662 75.716 29.672 118.836 47.261 37.67 15.391 69.942 7.526 107.423-5.259 54.399-18.541 107.8-38.488 152.944-49.776 15.084-3.763 29.844-8.161 44.712-11.651 57.611-13.555 113.683-34.364 173.128-41.05 58.96-6.574 117.461 7.321 174.775 37.718 54.294 28.583 113.444 49.21 163.334 60.453 2.48.566 5.07 1.02 7.8 1.246 54.29 4.375 127.17-18.315 187.08-33.298 56.93-14.234 112.73-37.4 170.05-23.211 7.96 1.972 15.89 4.239 23.8 6.959 84.7 29.059 155.72 86.09 242.77 93.683" stroke="url(#electromagnetic-waves_svg__f)"></path><path d="M177.473 414.203c36.428 7.299 76.364 27.745 120.671 44.36 37.913 14.212 70.698 6.596 108.448-5.826 55.668-18.315 110.067-37.831 154.455-49.119 15.057-3.831 29.737-8.614 44.47-12.626 56.855-15.459 111.956-39.508 170.996-45.991 58.798-6.392 115.95 13.917 173.074 43.997 54.643 28.56 116.893 44.427 165.713 57.914 2.42.68 4.96 1.247 7.69 1.564 53.18 6.097 129-16.184 189.15-30.827 56.8-13.85 112.82-40.461 170.24-27.382 8.1 1.836 16.14 3.967 24.18 6.528 86.59 27.631 157.72 84.752 246.39 92.21" stroke="url(#electromagnetic-waves_svg__g)"></path><path d="M168.592 422.499c35.915 6.959 76.985 25.818 122.533 41.458 38.155 13.079 71.453 5.69 109.447-6.392 56.908-18.088 112.333-37.174 155.966-48.485 15.03-3.899 29.601-9.067 44.253-13.6 56.073-17.363 110.202-44.654 168.865-50.956 58.636-6.21 114.465 20.514 171.401 50.299 54.966 28.515 120.353 39.644 168.083 55.375 2.37.771 4.88 1.474 7.55 1.882 52.08 7.774 130.85-14.031 191.24-28.357 56.67-13.442 112.93-43.521 170.46-31.575 8.23 1.7 16.4 3.672 24.52 6.097 88.46 26.203 159.72 83.392 250.04 90.759" stroke="url(#electromagnetic-waves_svg__h)"></path><path d="M159.715 430.775c35.43 6.596 77.578 23.936 124.395 38.534 38.344 11.968 72.209 4.783 110.445-6.936 58.177-17.839 114.6-36.517 157.45-47.851 15.003-3.966 29.467-9.497 44.011-14.552 55.29-19.244 108.448-49.799 166.733-55.897 58.501-6.052 112.873 27.201 169.728 56.6 55.236 28.56 123.773 34.862 170.433 52.837 2.29.884 4.77 1.677 7.44 2.176 50.95 9.452 132.68-11.9 193.32-25.909 56.53-13.056 113-46.603 170.67-35.746 8.36 1.587 16.65 3.401 24.9 5.645 90.37 24.775 161.72 82.054 253.68 89.308" stroke="url(#electromagnetic-waves_svg__i)"></path><path d="M150.863 439.047c34.917 6.234 78.145 22.078 126.258 35.633 38.532 10.88 72.964 3.876 111.47-7.503 59.445-17.567 116.867-35.882 158.961-47.193 14.976-4.034 29.332-9.928 43.795-15.527 54.534-21.103 106.694-54.922 164.628-60.861 58.339-5.87 111.362 33.797 168.028 62.901 55.56 28.516 127.227 30.057 172.807 50.299 2.24.997 4.67 1.904 7.31 2.493 49.81 11.084 134.54-9.769 195.39-23.438 56.4-12.648 113.12-49.709 170.89-39.916 8.5 1.45 16.92 3.105 25.26 5.213 92.25 23.302 163.71 80.717 257.31 87.835" stroke="url(#electromagnetic-waves_svg__j)"></path><path d="M141.986 447.344c34.432 5.871 78.685 20.219 128.092 32.732 38.695 9.792 73.72 2.969 112.469-8.07 60.741-17.317 119.134-35.247 160.473-46.558 14.949-4.08 29.223-10.359 43.552-16.502 53.751-22.961 104.967-60.067 162.496-65.802 58.204-5.69 109.878 40.393 166.355 69.202 55.884 28.493 130.657 25.252 175.177 47.737 2.19 1.111 4.56 2.131 7.21 2.811 48.7 12.671 136.37-7.639 197.46-20.967 56.27-12.263 113.26-52.837 171.11-44.11 8.63 1.292 17.16 2.833 25.63 4.783 94.18 21.828 165.71 79.357 260.96 86.384" stroke="url(#electromagnetic-waves_svg__k)"></path><path d="M133.111 455.618c33.919 5.508 79.225 18.406 129.954 29.83 38.857 8.75 74.503 2.085 113.494-8.636 62.009-17.046 121.4-34.59 161.984-45.901 14.922-4.148 29.089-10.789 43.336-17.476 52.996-24.798 103.213-65.213 160.365-70.744 58.042-5.531 108.367 46.989 164.682 75.481 56.207 28.447 134.114 20.446 177.554 45.198 2.13 1.202 4.45 2.335 7.07 3.128 47.57 14.235 138.21-5.53 199.54-18.496 56.13-11.877 113.36-55.965 171.32-48.281 8.77 1.156 17.44 2.539 25.99 4.352 96.06 20.355 167.68 78.02 264.6 84.934" stroke="url(#electromagnetic-waves_svg__l)"></path><path d="M124.232 463.892c33.433 5.145 79.765 16.615 131.816 26.928 39.019 7.73 75.258 1.202 114.493-9.18 63.304-16.751 123.666-33.955 163.468-45.266 14.895-4.216 28.953-11.22 43.093-18.428 52.24-26.634 101.459-70.359 158.233-75.708 57.88-5.35 106.856 53.585 162.982 81.783 56.531 28.401 137.563 15.64 179.903 42.659 2.08 1.315 4.34 2.539 6.96 3.423 46.44 15.776 140.05-3.4 201.62-16.049 55.99-11.492 113.47-59.115 171.54-52.451 8.9 1.02 17.7 2.244 26.34 3.921 98 18.859 169.67 76.66 268.24 83.46" stroke="url(#electromagnetic-waves_svg__m)"></path><path d="M115.355 472.187c32.921 4.783 80.277 14.869 133.678 24.027 39.154 6.709 76.041.317 115.518-9.747 64.572-16.456 125.933-33.343 164.979-44.631 14.868-4.307 28.846-11.651 42.877-19.403 51.512-28.447 99.705-75.504 156.129-80.65 57.745-5.168 105.371 60.181 161.309 88.084 56.882 28.38 141.015 10.813 182.275 40.121 2 1.428 4.24 2.766 6.83 3.74 45.33 17.295 141.88-1.269 203.7-13.577 55.85-11.107 113.6-62.267 171.75-56.645 9.07.884 17.94 1.949 26.71 3.49 99.93 17.341 171.68 75.323 271.87 82.01" stroke="url(#electromagnetic-waves_svg__n)"></path><path d="M106.475 480.459c32.434 4.42 80.789 13.124 135.512 21.103 39.316 5.735 76.796-.567 116.516-10.313 65.868-16.162 128.2-32.709 166.49-43.975 14.842-4.374 28.711-12.058 42.635-20.377 50.756-30.261 97.951-80.627 153.996-85.614 57.584-5.009 103.861 66.755 159.637 94.386 57.205 28.334 144.499 5.984 184.649 37.582 1.94 1.541 4.16 2.969 6.72 4.057 44.25 18.769 143.72.839 205.78-11.107 55.69-10.721 113.74-65.439 171.97-60.815 9.2.725 18.21 1.677 27.06 3.037 101.84 15.822 173.67 73.985 275.51 80.559" stroke="url(#electromagnetic-waves_svg__o)"></path><path d="M97.6 488.756c31.921 4.057 81.302 11.424 137.374 18.202 39.451 4.76 77.579-1.428 117.542-10.881 67.162-15.866 130.466-32.073 168.001-43.339 14.814-4.443 28.603-12.489 42.418-21.33 50.055-32.051 96.225-85.772 151.865-90.555 57.422-4.828 102.35 73.351 157.937 100.665 57.529 28.288 147.953 1.156 187.023 35.02 1.89 1.633 4.05 3.174 6.59 4.375 43.17 20.219 145.55 2.97 207.85-8.636 55.56-10.359 113.85-68.636 172.16-64.986 9.33.589 18.46 1.382 27.44 2.606 103.75 14.281 175.67 72.626 279.15 79.086" stroke="url(#electromagnetic-waves_svg__p)"></path><path d="M88.72 497.028c31.41 3.695 81.843 9.769 139.237 15.3 39.585 3.831 78.361-2.289 118.54-11.424 68.458-15.55 132.733-31.462 169.485-42.682 14.761-4.511 28.495-12.898 42.176-22.304 49.326-33.865 94.47-90.918 149.733-95.519 57.287-4.647 100.866 79.946 156.263 106.965 57.881 28.244 151.436-3.672 189.376 32.482 1.83 1.746 3.94 3.378 6.47 4.67 42.15 21.669 147.39 5.077 209.96-6.188 55.43-9.974 113.98-71.832 172.38-69.18 9.47.43 18.72 1.088 27.79 2.176 105.67 12.739 177.66 71.288 282.79 77.634" stroke="url(#electromagnetic-waves_svg__q)"></path><path d="M79.846 505.302c30.923 3.332 82.354 8.115 141.071 12.399 39.747 2.879 79.117-3.174 119.565-11.991 69.753-15.232 134.973-30.85 170.997-42.047 14.733-4.579 28.387-13.329 41.959-23.28 48.625-35.632 92.717-96.063 147.629-100.46 57.125-4.488 99.354 86.52 154.59 113.267 58.204 28.198 154.913-8.5 191.743 29.944 1.79 1.858 3.86 3.581 6.35 4.986 41.09 23.075 149.22 7.186 212.03-3.717 55.29-9.588 114.09-75.051 172.59-73.351 9.64.272 19 .794 28.17 1.746 107.62 11.174 179.66 69.928 286.44 76.184" stroke="url(#electromagnetic-waves_svg__r)"></path><path d="M70.992 513.599c30.411 2.97 82.867 6.506 142.933 9.498 39.909 1.972 79.899-4.012 120.564-12.558 71.048-14.892 137.24-30.215 172.508-41.412 14.706-4.67 28.279-13.737 41.717-24.232 47.923-37.423 90.962-101.208 145.496-105.401 56.963-4.307 97.871 93.116 152.918 119.568 58.554 28.153 158.392-13.328 194.122 27.405 1.73 1.949 3.75 3.785 6.23 5.304 40.1 24.48 151.03 9.293 214.12-1.247 55.13-9.225 114.22-76.478 172.8-77.521 9.77-.181 19.24.499 28.53 1.315 109.52 9.588 181.62 68.59 290.07 74.71" stroke="url(#electromagnetic-waves_svg__s)"></path><path d="M62.115 521.874c29.925 2.607 83.677 1.519 144.795 6.596 39.882 3.31 80.682-4.873 121.589-13.124 72.344-14.575 139.48-29.603 174.019-40.755 14.679-4.738 28.171-14.144 41.501-25.206 47.222-39.214 89.182-106.331 143.338-110.366 56.828-4.125 96.44 99.599 151.217 125.87 58.933 27.994 161.906-18.179 196.466 24.866 1.68 2.063 3.65 3.989 6.1 5.621 39.13 25.886 152.87 11.402 216.2 1.225 54.99-8.863 114.38-79.857 173.02-81.715 9.9-.318 19.51.204 28.9.884 111.44 8.001 183.62 67.23 293.69 73.26" stroke="url(#electromagnetic-waves_svg__t)"></path><path d="M53.236 530.148c29.413 2.244 84.082.294 146.657 3.672 40.152 2.176 81.437-5.735 122.588-13.669 73.639-14.212 141.746-29.013 175.502-40.12 14.653-4.828 28.064-14.552 41.259-26.181 46.601-40.959 87.481-111.454 141.26-115.284 56.666-3.967 94.929 106.195 149.544 132.149 59.284 27.948 165.384-23.007 198.844 22.304a26.6 26.6 0 0 0 5.99 5.939c38.18 27.268 154.7 13.509 218.27 3.672 54.86-8.478 114.44-84.752 173.24-85.886 10.04-.204 19.75-.09 29.25.431 113.36 6.392 185.62 65.893 297.33 71.809" stroke="url(#electromagnetic-waves_svg__u)"></path><path d="M44.361 538.444c28.927 1.882 84.541-.838 148.492.771 40.395 1.02 82.22-6.573 123.586-14.235 74.934-13.872 143.986-28.402 177.014-39.463 14.625-4.896 27.982-14.961 41.042-27.133 45.927-42.772 85.728-116.622 139.129-120.271 56.504-3.786 93.418 112.791 147.871 138.45 59.607 27.903 168.892-27.835 201.215 19.766a26.6 26.6 0 0 0 5.86 6.233c37.26 28.652 156.53 15.618 220.35 6.143 54.69-8.115 114.54-88.016 173.45-90.056 10.17-.363 20.02-.385 29.6 0 115.28 4.783 187.62 64.556 300.98 70.336" stroke="url(#electromagnetic-waves_svg__v)"></path><path d="M35.48 546.717c28.414 1.519 85.08.34 150.354-2.131 40.584-1.541 83.002-7.435 124.611-14.801 76.23-13.51 146.253-27.79 178.525-38.829 14.572-4.987 27.875-15.368 40.827-28.107 45.279-44.541 83.974-121.768 136.997-125.213 56.369-3.604 91.934 119.365 146.171 144.752 59.931 27.88 172.399-32.663 203.595 17.227a26.6 26.6 0 0 0 5.75 6.551c36.37 30.033 158.36 17.725 222.42 8.613 54.56-7.752 114.66-91.28 173.67-94.25 10.31-.521 20.29-.702 29.98-.43 117.19 3.173 189.61 63.196 304.62 68.885" stroke="url(#electromagnetic-waves_svg__w)"></path><path d="M26.606 554.991c27.9 1.156 85.673-1.133 152.215-5.032 40.8-2.403 83.785-8.274 125.61-15.346 77.524-13.147 148.492-27.2 180.036-38.194 14.544-5.077 27.793-15.776 40.583-29.082 44.632-46.308 82.22-126.912 134.865-130.176 56.208-3.446 90.423 125.96 144.499 151.053 60.282 27.835 175.907-37.491 205.936 14.688 1.43 2.493 3.3 4.806 5.62 6.868 35.48 31.417 160.17 19.721 224.5 11.062 54.4-7.48 114.76-94.545 173.89-98.421 10.44-.68 20.53-.997 30.33-.861 119.08 1.541 191.61 61.858 308.26 67.435" stroke="url(#electromagnetic-waves_svg__x)"></path><path d="M17.727 563.288c27.415.793 86.267-2.584 154.077-7.934 41.015-3.241 84.54-9.112 126.635-15.912 78.82-12.762 150.732-26.611 181.52-37.537 14.517-5.145 27.686-16.207 40.368-30.033 43.984-48.123 80.466-132.081 132.733-135.142 56.046-3.264 88.912 132.557 142.826 157.355 60.605 27.79 179.523-42.342 208.314 12.15 1.38 2.606 3.21 5.009 5.51 7.185 34.64 32.799 162.01 21.851 226.58 13.532 54.26-7.094 114.84-97.831 174.1-102.591 10.58-.861 20.8-1.246 30.71-1.292 120.99-.657 193.6 60.499 311.9 65.961" stroke="url(#electromagnetic-waves_svg__y)"></path><path d="M8.848 571.559c26.903.431 86.887-4.034 155.912-10.857 41.231-4.08 85.323-9.883 127.633-16.479 80.142-12.286 152.972-26.045 183.032-36.902 14.463-5.259 27.631-16.592 40.125-31.009 43.497-49.799 78.765-137.158 130.655-140.037 55.911-3.083 87.428 139.153 141.125 163.634 60.93 27.744 183.005-47.148 210.69 9.611 1.322 2.697 3.13 5.213 5.37 7.48 33.81 34.204 163.85 23.959 228.66 16.003 54.13-6.71 114.92-101.118 174.29-106.785 10.71-1.02 21.05-1.609 31.06-1.745 122.88-1.904 195.6 59.161 315.55 64.51" stroke="url(#electromagnetic-waves_svg__z)"></path><path d="M0 579.833c71.83.204 400.386-40.96 470.975-67.05 64.249-23.732 101.945-173.493 168.379-176.984 55.749-2.924 85.917 145.726 139.453 169.935 61.253 27.699 186.485-51.953 213.064 7.049 20.129 44.7 166.569 34.409 235.999 26.271 54-6.324 115.01-104.427 174.51-110.955 144.71-15.889 219.16 55.217 350.6 60.884" stroke="url(#electromagnetic-waves_svg__A)"></path></g><defs><linearGradient gradientUnits="userSpaceOnUse" id="electromagnetic-waves_svg__a" x1="175.656" x2="1091.11" y1="482.37" y2="-342.143"><stop stop-color="#717171" stop-opacity="0"></stop><stop offset="0.22" stop-color="#717171" stop-opacity="0.93"></stop><stop offset="0.535" stop-color="#3C3C3C" stop-opacity="0.65"></stop><stop offset="1" stop-color="#717171" stop-opacity="0.93"></stop></linearGradient><linearGradient gradientUnits="userSpaceOnUse" id="electromagnetic-waves_svg__b" x1="166.483" x2="1065.1" y1="482.551" y2="-348.812"><stop stop-color="#717171" stop-opacity="0"></stop><stop offset="0.22" stop-color="#717171" stop-opacity="0.93"></stop><stop offset="0.535" stop-color="#3C3C3C" stop-opacity="0.65"></stop><stop offset="1" stop-color="#717171" stop-opacity="0.93"></stop></linearGradient><linearGradient gradientUnits="userSpaceOnUse" id="electromagnetic-waves_svg__c" x1="157.285" x2="1042.91" y1="482.631" y2="-354.771"><stop stop-color="#717171" stop-opacity="0"></stop><stop offset="0.22" stop-color="#717171" stop-opacity="0.93"></stop><stop offset="0.535" stop-color="#3C3C3C" stop-opacity="0.65"></stop><stop offset="1" stop-color="#717171" stop-opacity="0.93"></stop></linearGradient><linearGradient gradientUnits="userSpaceOnUse" id="electromagnetic-waves_svg__d" x1="148.084" x2="1025.23" y1="482.652" y2="-360.213"><stop stop-color="#717171" stop-opacity="0"></stop><stop offset="0.22" stop-color="#717171" stop-opacity="0.93"></stop><stop offset="0.535" stop-color="#3C3C3C" stop-opacity="0.65"></stop><stop offset="1" stop-color="#717171" stop-opacity="0.93"></stop></linearGradient><linearGradient gradientUnits="userSpaceOnUse" id="electromagnetic-waves_svg__e" x1="138.887" x2="1012.04" y1="482.75" y2="-365.273"><stop stop-color="#717171" stop-opacity="0"></stop><stop offset="0.22" stop-color="#717171" stop-opacity="0.93"></stop><stop offset="0.535" stop-color="#3C3C3C" stop-opacity="0.65"></stop><stop offset="1" stop-color="#717171" stop-opacity="0.93"></stop></linearGradient><linearGradient gradientUnits="userSpaceOnUse" id="electromagnetic-waves_svg__f" x1="129.686" x2="1001.62" y1="482.737" y2="-370.293"><stop stop-color="#717171" stop-opacity="0"></stop><stop offset="0.22" stop-color="#717171" stop-opacity="0.93"></stop><stop offset="0.535" stop-color="#3C3C3C" stop-opacity="0.65"></stop><stop offset="1" stop-color="#717171" stop-opacity="0.93"></stop></linearGradient><linearGradient gradientUnits="userSpaceOnUse" id="electromagnetic-waves_svg__g" x1="120.492" x2="992.707" y1="482.736" y2="-375.187"><stop stop-color="#717171" stop-opacity="0"></stop><stop offset="0.22" stop-color="#717171" stop-opacity="0.93"></stop><stop offset="0.535" stop-color="#3C3C3C" stop-opacity="0.65"></stop><stop offset="1" stop-color="#717171" stop-opacity="0.93"></stop></linearGradient><linearGradient gradientUnits="userSpaceOnUse" id="electromagnetic-waves_svg__h" x1="111.29" x2="984.776" y1="482.727" y2="-380.083"><stop stop-color="#717171" stop-opacity="0"></stop><stop offset="0.22" stop-color="#717171" stop-opacity="0.93"></stop><stop offset="0.535" stop-color="#3C3C3C" stop-opacity="0.65"></stop><stop offset="1" stop-color="#717171" stop-opacity="0.93"></stop></linearGradient><linearGradient gradientUnits="userSpaceOnUse" id="electromagnetic-waves_svg__i" x1="102.093" x2="977.089" y1="482.696" y2="-384.969"><stop stop-color="#717171" stop-opacity="0"></stop><stop offset="0.22" stop-color="#717171" stop-opacity="0.93"></stop><stop offset="0.535" stop-color="#3C3C3C" stop-opacity="0.65"></stop><stop offset="1" stop-color="#717171" stop-opacity="0.93"></stop></linearGradient><linearGradient gradientUnits="userSpaceOnUse" id="electromagnetic-waves_svg__j" x1="92.919" x2="969.975" y1="482.68" y2="-389.853"><stop stop-color="#717171" stop-opacity="0"></stop><stop offset="0.22" stop-color="#717171" stop-opacity="0.93"></stop><stop offset="0.535" stop-color="#3C3C3C" stop-opacity="0.65"></stop><stop offset="1" stop-color="#717171" stop-opacity="0.93"></stop></linearGradient><linearGradient gradientUnits="userSpaceOnUse" id="electromagnetic-waves_svg__k" x1="83.721" x2="962.895" y1="482.666" y2="-394.712"><stop stop-color="#717171" stop-opacity="0"></stop><stop offset="0.22" stop-color="#717171" stop-opacity="0.93"></stop><stop offset="0.535" stop-color="#3C3C3C" stop-opacity="0.65"></stop><stop offset="1" stop-color="#717171" stop-opacity="0.93"></stop></linearGradient><linearGradient gradientUnits="userSpaceOnUse" id="electromagnetic-waves_svg__l" x1="74.524" x2="958.969" y1="483.129" y2="-399.098"><stop stop-color="#717171" stop-opacity="0"></stop><stop offset="0.22" stop-color="#717171" stop-opacity="0.93"></stop><stop offset="0.535" stop-color="#3C3C3C" stop-opacity="0.65"></stop><stop offset="1" stop-color="#717171" stop-opacity="0.93"></stop></linearGradient><linearGradient gradientUnits="userSpaceOnUse" id="electromagnetic-waves_svg__m" x1="65.327" x2="980.056" y1="487.633" y2="-398.955"><stop stop-color="#717171" stop-opacity="0"></stop><stop offset="0.22" stop-color="#717171" stop-opacity="0.93"></stop><stop offset="0.535" stop-color="#3C3C3C" stop-opacity="0.65"></stop><stop offset="1" stop-color="#717171" stop-opacity="0.93"></stop></linearGradient><linearGradient gradientUnits="userSpaceOnUse" id="electromagnetic-waves_svg__n" x1="56.127" x2="1000.71" y1="492.177" y2="-398.15"><stop stop-color="#717171" stop-opacity="0"></stop><stop offset="0.22" stop-color="#717171" stop-opacity="0.93"></stop><stop offset="0.535" stop-color="#3C3C3C" stop-opacity="0.65"></stop><stop offset="1" stop-color="#717171" stop-opacity="0.93"></stop></linearGradient><linearGradient gradientUnits="userSpaceOnUse" id="electromagnetic-waves_svg__o" x1="46.926" x2="1020.95" y1="496.72" y2="-396.646"><stop stop-color="#717171" stop-opacity="0"></stop><stop offset="0.22" stop-color="#717171" stop-opacity="0.93"></stop><stop offset="0.535" stop-color="#3C3C3C" stop-opacity="0.65"></stop><stop offset="1" stop-color="#717171" stop-opacity="0.93"></stop></linearGradient><linearGradient gradientUnits="userSpaceOnUse" id="electromagnetic-waves_svg__p" x1="37.73" x2="1040.54" y1="501.347" y2="-394.487"><stop stop-color="#717171" stop-opacity="0"></stop><stop offset="0.22" stop-color="#717171" stop-opacity="0.93"></stop><stop offset="0.535" stop-color="#3C3C3C" stop-opacity="0.65"></stop><stop offset="1" stop-color="#717171" stop-opacity="0.93"></stop></linearGradient><linearGradient gradientUnits="userSpaceOnUse" id="electromagnetic-waves_svg__q" x1="28.531" x2="1059.74" y1="506.008" y2="-391.713"><stop stop-color="#717171" stop-opacity="0"></stop><stop offset="0.22" stop-color="#717171" stop-opacity="0.93"></stop><stop offset="0.535" stop-color="#3C3C3C" stop-opacity="0.65"></stop><stop offset="1" stop-color="#717171" stop-opacity="0.93"></stop></linearGradient><linearGradient gradientUnits="userSpaceOnUse" id="electromagnetic-waves_svg__r" x1="19.333" x2="1078.57" y1="510.711" y2="-388.412"><stop stop-color="#717171" stop-opacity="0"></stop><stop offset="0.22" stop-color="#717171" stop-opacity="0.93"></stop><stop offset="0.535" stop-color="#3C3C3C" stop-opacity="0.65"></stop><stop offset="1" stop-color="#717171" stop-opacity="0.93"></stop></linearGradient><linearGradient gradientUnits="userSpaceOnUse" id="electromagnetic-waves_svg__s" x1="10.158" x2="1097.04" y1="515.525" y2="-384.467"><stop stop-color="#717171" stop-opacity="0"></stop><stop offset="0.22" stop-color="#717171" stop-opacity="0.93"></stop><stop offset="0.535" stop-color="#3C3C3C" stop-opacity="0.65"></stop><stop offset="1" stop-color="#717171" stop-opacity="0.93"></stop></linearGradient><linearGradient gradientUnits="userSpaceOnUse" id="electromagnetic-waves_svg__t" x1="0.962" x2="1118.22" y1="521.006" y2="-378.673"><stop stop-color="#717171" stop-opacity="0"></stop><stop offset="0.22" stop-color="#717171" stop-opacity="0.93"></stop><stop offset="0.535" stop-color="#3C3C3C" stop-opacity="0.65"></stop><stop offset="1" stop-color="#717171" stop-opacity="0.93"></stop></linearGradient><linearGradient gradientUnits="userSpaceOnUse" id="electromagnetic-waves_svg__u" x1="-8.239" x2="1134.89" y1="525.735" y2="-374.088"><stop stop-color="#717171" stop-opacity="0"></stop><stop offset="0.22" stop-color="#717171" stop-opacity="0.93"></stop><stop offset="0.535" stop-color="#3C3C3C" stop-opacity="0.65"></stop><stop offset="1" stop-color="#717171" stop-opacity="0.93"></stop></linearGradient><linearGradient gradientUnits="userSpaceOnUse" id="electromagnetic-waves_svg__v" x1="-17.434" x2="1151.6" y1="530.616" y2="-368.837"><stop stop-color="#717171" stop-opacity="0"></stop><stop offset="0.22" stop-color="#717171" stop-opacity="0.93"></stop><stop offset="0.535" stop-color="#3C3C3C" stop-opacity="0.65"></stop><stop offset="1" stop-color="#717171" stop-opacity="0.93"></stop></linearGradient><linearGradient gradientUnits="userSpaceOnUse" id="electromagnetic-waves_svg__w" x1="-26.638" x2="1180" y1="538.333" y2="-356.878"><stop stop-color="#717171" stop-opacity="0"></stop><stop offset="0.22" stop-color="#717171" stop-opacity="0.93"></stop><stop offset="0.535" stop-color="#3C3C3C" stop-opacity="0.65"></stop><stop offset="1" stop-color="#717171" stop-opacity="0.93"></stop></linearGradient><linearGradient gradientUnits="userSpaceOnUse" id="electromagnetic-waves_svg__x" x1="-35.832" x2="1205.95" y1="545.87" y2="-344.657"><stop stop-color="#717171" stop-opacity="0"></stop><stop offset="0.22" stop-color="#717171" stop-opacity="0.93"></stop><stop offset="0.535" stop-color="#3C3C3C" stop-opacity="0.65"></stop><stop offset="1" stop-color="#717171" stop-opacity="0.93"></stop></linearGradient><linearGradient gradientUnits="userSpaceOnUse" id="electromagnetic-waves_svg__y" x1="-45.034" x2="1231.01" y1="553.613" y2="-331.606"><stop stop-color="#717171" stop-opacity="0"></stop><stop offset="0.22" stop-color="#717171" stop-opacity="0.93"></stop><stop offset="0.535" stop-color="#3C3C3C" stop-opacity="0.65"></stop><stop offset="1" stop-color="#717171" stop-opacity="0.93"></stop></linearGradient><linearGradient gradientUnits="userSpaceOnUse" id="electromagnetic-waves_svg__z" x1="-54.232" x2="1254.9" y1="561.426" y2="-317.89"><stop stop-color="#717171" stop-opacity="0"></stop><stop offset="0.22" stop-color="#717171" stop-opacity="0.93"></stop><stop offset="0.535" stop-color="#3C3C3C" stop-opacity="0.65"></stop><stop offset="1" stop-color="#717171" stop-opacity="0.93"></stop></linearGradient><linearGradient gradientUnits="userSpaceOnUse" id="electromagnetic-waves_svg__A" x1="-63.401" x2="1277.68" y1="569.295" y2="-303.739"><stop stop-color="#717171" stop-opacity="0"></stop><stop offset="0.22" stop-color="#717171" stop-opacity="0.93"></stop><stop offset="0.535" stop-color="#3C3C3C" stop-opacity="0.65"></stop><stop offset="1" stop-color="#717171" stop-opacity="0.93"></stop></linearGradient></defs></svg>