<svg class="h-full w-full" fill="none" height="100%" viewBox="0 0 1431 1431" width="100%" xmlns="http://www.w3.org/2000/svg" color="inherit" name="orbit-ring"><path d="M653.148 837.439c213.146 91.664 413.942 111.36 448.492 43.99 34.55-67.369-110.233-196.291-323.38-287.956-213.146-91.664-413.942-111.36-448.491-43.99-34.549 67.369 110.232 196.291 323.379 287.956Z" stroke="url(#OrbitRing_svg__a)" stroke-miterlimit="10"></path><path d="M627.644 887.163c300.024 129.027 582.666 156.747 631.296 61.916 48.63-94.83-155.16-276.302-455.183-405.329S221.092 387.002 172.46 481.833s155.161 276.303 455.184 405.33Z" stroke="url(#OrbitRing_svg__b)" stroke-miterlimit="10"></path><path d="M674.145 796.49c141.578 60.887 274.956 73.965 297.907 29.211 22.951-44.753-73.216-130.392-214.794-191.278-141.579-60.887-274.956-73.965-297.907-29.211-22.952 44.753 73.215 130.392 214.794 191.278Z" stroke="url(#OrbitRing_svg__c)" stroke-miterlimit="10"></path><defs><linearGradient gradientUnits="userSpaceOnUse" id="OrbitRing_svg__a" x1="244.698" x2="1122.66" y1="648.926" y2="825.604"><stop stop-color="#717171" stop-opacity="0.93"></stop><stop offset="0.535" stop-color="#3C3C3C" stop-opacity="0.65"></stop><stop offset="1" stop-color="#717171" stop-opacity="0.93"></stop></linearGradient><linearGradient gradientUnits="userSpaceOnUse" id="OrbitRing_svg__b" x1="52.713" x2="1288.53" y1="621.812" y2="870.512"><stop stop-color="#717171" stop-opacity="0.93"></stop><stop offset="0.535" stop-color="#3C3C3C" stop-opacity="0.65"></stop><stop offset="1" stop-color="#717171" stop-opacity="0.93"></stop></linearGradient><linearGradient gradientUnits="userSpaceOnUse" id="OrbitRing_svg__c" x1="402.839" x2="986.011" y1="671.273" y2="788.647"><stop stop-color="#717171" stop-opacity="0.93"></stop><stop offset="0.535" stop-color="#3C3C3C" stop-opacity="0.65"></stop><stop offset="1" stop-color="#717171" stop-opacity="0.93"></stop></linearGradient></defs></svg>