<svg class="absolute right-0 top-0 h-auto w-[220px] translate-x-[15%] translate-y-[10%] md:inset-auto md:bottom-1/2 md:left-[50%] md:w-[320px] md:-translate-y-[25%] md:translate-x-[120%]" fill="none" height="100%" viewBox="0 0 377 369" width="100%" xmlns="http://www.w3.org/2000/svg" color="inherit" name="warp-hole"><g clip-path="url(#WarpHole_svg__a)" fill="#CFCCCC" opacity="0.24"><path d="M182.613 135.591a.5.5 0 0 1-.095-.14.5.5 0 0 1 .187-.601c.798-.526 1.731-.892 2.775-1.088 9.716-1.88 17.832-4.185 21.807-5.397 5.875-1.785 7.972-2.537 13.585-4.546 3.378-1.209 9.275-3.625 9.33-3.652a560 560 0 0 0 8.867-3.898 259 259 0 0 0 23.847-12.614c1.265-.76 2.633-1.604 4.311-2.629 1.509-.938 3.007-1.9 4.493-2.874 1.268-.843 2.878-1.93 5.226-3.51.225-.15.531-.101.686.13.149.226.1.531-.126.68a252 252 0 0 1-5.219 3.505 118 118 0 0 1-4.14 2.654c-.14.083-.268.166-.408.248-1.429.888-2.87 1.776-4.316 2.634-2.912 1.757-5.231 3.096-9.371 5.354-4.274 2.334-8.93 4.622-9.438 4.871l-1.39.672c-1.13.546-2.345 1.137-3.347 1.589a9 9 0 0 1-.417.188c-18.147 8.422-37.168 14.712-56.399 18.58a.5.5 0 0 1-.46-.156z"></path><path d="M183.974 156.534c-4.858-8.967-5.875-16.297-2.861-20.207 1.401-1.812 4.323-3.68 10.29-2.267 28.784-6.311 58.353-19.948 85.538-39.426a.504.504 0 0 1 .681.101.505.505 0 0 1-.084.688c-28.317 22.686-60.467 43.853-92.971 61.214a.5.5 0 0 1-.599-.098zm81.445-52.905c-23.882 15.226-49.178 26.008-73.907 31.417a.6.6 0 0 1-.218-.004c-4.381-1.052-7.627-.404-9.392 1.888-2.676 3.476-1.688 10.414 2.65 18.6 27.98-14.978 55.673-32.76 80.873-51.907z"></path><path d="M245.744 118.639c-1.224-2.23-1.438-4.037-.666-5.037.314-.412 1.088-1.04 2.731-.641a.493.493 0 1 1-.232.959c-.579-.138-1.345-.208-1.722.284-.396.52-.43 1.808.683 3.868a.496.496 0 0 1-.8.573zM214.487 139.073c-2.828-5.211-3.405-9.458-1.635-11.744.842-1.086 2.583-2.203 6.128-1.348a.496.496 0 0 1 .363.596.496.496 0 0 1-.596.364c-2.398-.58-4.164-.233-5.106.991-1.495 1.943-.875 5.891 1.652 10.574a.498.498 0 0 1-.801.573zM104.317 190.741c-12.087-22.361-14.804-41.443-7.336-51.144 5.005-6.5 14.013-8.399 26.051-5.499 17.302 4.673 37.319 5.292 58.386 1.872 1.513-1.701 4.457-3.249 10.113-1.88a.496.496 0 0 1-.014.963 185 185 0 0 1-9.573 1.839c-2.763 3.578-1.683 10.692 2.841 19.082a.54.54 0 0 1 .042.38.47.47 0 0 1-.244.291c-27.87 14.889-55.449 26.728-79.746 34.244a.5.5 0 0 1-.508-.135zm76.287-53.643c-20.853 3.27-40.654 2.59-57.816-2.041-11.617-2.799-20.27-1.02-25.018 5.142-7.185 9.33-4.503 27.855 7.163 49.606 24.017-7.463 51.228-19.147 78.751-33.821-4.298-8.12-5.382-14.903-3.073-18.903zm8.189-2.485c-2.26-.219-4.127.13-5.516 1.037 1.829-.314 3.672-.664 5.516-1.037"></path><path d="M182.613 135.591a.5.5 0 0 1-.095-.14.5.5 0 0 1 .187-.601c.798-.526 1.731-.892 2.775-1.088 9.716-1.88 17.832-4.185 21.807-5.397 5.875-1.785 7.972-2.537 13.585-4.546 3.378-1.209 9.275-3.625 9.33-3.652a560 560 0 0 0 8.867-3.898 259 259 0 0 0 23.847-12.614c1.265-.76 2.633-1.604 4.311-2.629 1.509-.938 3.007-1.9 4.493-2.874 1.268-.843 2.878-1.93 5.226-3.51.225-.15.531-.101.686.13.149.226.1.531-.126.68a252 252 0 0 1-5.219 3.505 118 118 0 0 1-4.14 2.654c-.14.083-.268.166-.408.248-1.429.888-2.87 1.776-4.316 2.634-2.912 1.757-5.231 3.096-9.371 5.354-4.274 2.334-8.93 4.622-9.438 4.871l-1.39.672c-1.13.546-2.345 1.137-3.347 1.589a9 9 0 0 1-.417.188c-18.147 8.422-37.168 14.712-56.399 18.58a.5.5 0 0 1-.46-.156z"></path><path d="M185.214 134.572a.5.5 0 0 1-.125-.236.49.49 0 0 1 .386-.58c2.56-.519 5.964-1.254 8.472-1.817 1.326-.296 3.079-.744 4.395-1.087 5.133-1.321 8.142-2.228 13.354-3.87 2.549-.803 3.943-1.297 9.112-3.148.979-.352 2.159-.808 3.248-1.227l1.414-.546c2.419-.921 3.197-1.259 9.298-3.861 2.393-1.023 3.191-1.401 9.354-4.343.979-.465 2.159-1.069 3.255-1.629l1.422-.723c2.765-1.397 5.961-3.176 9.358-5.071.497-.285 4.581-2.592 9.485-5.673a252 252 0 0 0 9.323-6.136.503.503 0 0 1 .687.119c.156.22.1.53-.12.686-28.168 19.529-59.923 33.116-91.851 39.281a.5.5 0 0 1-.46-.157z"></path><path d="M183.974 156.534c-4.858-8.967-5.875-16.297-2.861-20.207 1.401-1.812 4.323-3.68 10.29-2.267 28.784-6.311 58.353-19.948 85.538-39.426a.504.504 0 0 1 .681.101.505.505 0 0 1-.084.688c-28.317 22.686-60.467 43.853-92.971 61.214a.5.5 0 0 1-.599-.098zm81.445-52.905c-23.882 15.226-49.178 26.008-73.907 31.417a.6.6 0 0 1-.218-.004c-4.381-1.052-7.627-.404-9.392 1.888-2.676 3.476-1.688 10.414 2.65 18.6 27.98-14.978 55.673-32.76 80.873-51.907z"></path><path d="M245.744 118.639c-1.224-2.23-1.438-4.037-.666-5.037.314-.412 1.088-1.04 2.731-.641a.493.493 0 1 1-.232.959c-.579-.138-1.345-.208-1.722.284-.396.52-.43 1.808.683 3.868a.496.496 0 0 1-.8.573zM214.487 139.073c-2.828-5.211-3.405-9.458-1.635-11.744.842-1.086 2.583-2.203 6.128-1.348a.496.496 0 0 1 .363.596.496.496 0 0 1-.596.364c-2.398-.58-4.164-.233-5.106.991-1.495 1.943-.875 5.891 1.652 10.574a.498.498 0 0 1-.801.573zM104.317 190.741c-12.087-22.361-14.804-41.443-7.336-51.144 5.005-6.5 14.013-8.399 26.051-5.499 17.302 4.673 37.319 5.292 58.386 1.872 1.513-1.701 4.457-3.249 10.113-1.88a.496.496 0 0 1-.014.963 185 185 0 0 1-9.573 1.839c-2.763 3.578-1.683 10.692 2.841 19.082a.54.54 0 0 1 .042.38.47.47 0 0 1-.244.291c-27.87 14.889-55.449 26.728-79.746 34.244a.5.5 0 0 1-.508-.135zm76.287-53.643c-20.853 3.27-40.654 2.59-57.816-2.041-11.617-2.799-20.27-1.02-25.018 5.142-7.185 9.33-4.503 27.855 7.163 49.606 24.017-7.463 51.228-19.147 78.751-33.821-4.298-8.12-5.382-14.903-3.073-18.903zm8.189-2.485c-2.26-.219-4.127.13-5.516 1.037 1.829-.314 3.672-.664 5.516-1.037"></path><path d="M185.214 134.572a.5.5 0 0 1-.125-.236.49.49 0 0 1 .386-.58c2.56-.519 5.964-1.254 8.472-1.817 1.326-.296 3.079-.744 4.395-1.087 5.133-1.321 8.142-2.228 13.354-3.87 2.549-.803 3.943-1.297 9.112-3.148.979-.352 2.159-.808 3.248-1.227l1.414-.546c2.419-.921 3.197-1.259 9.298-3.861 2.393-1.023 3.191-1.401 9.354-4.343.979-.465 2.159-1.069 3.255-1.629l1.422-.723c2.765-1.397 5.961-3.176 9.358-5.071.497-.285 4.581-2.592 9.485-5.673a252 252 0 0 0 9.323-6.136.503.503 0 0 1 .687.119c.156.22.1.53-.12.686-28.168 19.529-59.923 33.116-91.851 39.281a.5.5 0 0 1-.46-.157z"></path><path d="M194.414 170.977c-4.124-4.511-7.79-9.499-10.507-14.539-5.495-10.184-5.956-18.452-1.202-21.587a.4.4 0 0 1 .174-.069c33.116-6.662 65.641-20.546 94.073-40.146a.493.493 0 0 1 .665.716c-21.608 26.939-37.814 58.388-46.856 90.936a.5.5 0 0 1-.085.168c-1.407 1.829-4.353 3.708-10.407 2.251-7.949-1.921-17.78-8.91-25.854-17.742zm-11.241-35.242c-4.209 2.863-3.594 10.607 1.6 20.239 7.929 14.691 23.954 28.949 35.722 31.779 4.34 1.045 7.561.419 9.335-1.814 8.806-31.63 24.347-62.221 45.01-88.67-27.87 18.702-59.499 31.981-91.672 38.46z"></path><path d="M183.972 156.535c-4.858-8.967-5.875-16.297-2.861-20.207 1.401-1.812 4.323-3.68 10.29-2.267 28.784-6.311 58.354-19.948 85.538-39.426a.504.504 0 0 1 .681.101.505.505 0 0 1-.084.688c-28.317 22.686-60.467 43.853-92.971 61.214a.5.5 0 0 1-.599-.098zm81.445-52.905c-23.882 15.226-49.178 26.008-73.907 31.417a.6.6 0 0 1-.218-.004c-4.381-1.052-7.627-.404-9.392 1.888-2.675 3.476-1.688 10.414 2.65 18.6 27.98-14.978 55.673-32.76 80.873-51.907z"></path><path d="M245.742 118.64c-1.224-2.23-1.438-4.037-.666-5.037.315-.412 1.088-1.04 2.731-.641a.493.493 0 1 1-.232.959c-.579-.138-1.345-.208-1.722.284-.396.52-.43 1.808.683 3.868a.496.496 0 0 1-.8.573zM214.485 139.075c-2.828-5.211-3.405-9.458-1.634-11.744.841-1.086 2.582-2.203 6.127-1.348a.496.496 0 0 1 .363.596.496.496 0 0 1-.596.364c-2.398-.58-4.164-.233-5.106.99-1.495 1.944-.874 5.892 1.652 10.575a.498.498 0 0 1-.801.573z"></path><path d="M182.141 135.942a.56.56 0 0 1-.125-.236.49.49 0 0 1 .387-.58c33.354-6.835 66.044-20.835 94.543-40.485a.5.5 0 0 1 .686.12c.156.219.1.53-.12.686-28.608 19.728-61.431 33.781-94.916 40.645a.51.51 0 0 1-.467-.151z"></path><path d="M179.604 143.705a.503.503 0 0 1 .22-.812c34.662-10.791 68.248-27.477 97.122-48.252a.49.49 0 0 1 .693.114.497.497 0 0 1-.114.693c-28.96 20.841-62.649 37.576-97.407 48.398a.49.49 0 0 1-.514-.141"></path><path d="M194.414 170.977c-4.124-4.512-7.79-9.499-10.507-14.54a.55.55 0 0 1-.042-.38.49.49 0 0 1 .244-.291c32.455-17.327 64.545-38.461 92.812-61.114a.49.49 0 0 1 .661.042c.18.197.185.475.023.669-23.053 27.253-42.68 59.431-56.779 93.061a.51.51 0 0 1-.569.294c-7.949-1.921-17.78-8.91-25.855-17.742zm-9.4-14.567c7.913 14.365 23.472 28.213 35.077 31.248 13.485-32.073 31.996-62.822 53.692-89.231-27.256 21.455-57.839 41.439-88.769 57.983"></path><path d="M248.087 121.874c-.947-1.036-1.788-2.179-2.41-3.33a.493.493 0 0 1 .201-.671.49.49 0 0 1 .671.202c1.741 3.229 5.237 6.346 7.793 6.963a.487.487 0 0 1 .363.595.496.496 0 0 1-.596.364c-1.86-.449-4.152-2.077-6.022-4.123M220.406 147.26c-2.35-2.57-4.439-5.412-5.988-8.284a.493.493 0 0 1 .201-.671.49.49 0 0 1 .671.202c4.475 8.287 13.507 16.334 20.134 17.936a.494.494 0 0 1-.233.959c-4.544-1.095-10.17-5.094-14.785-10.142"></path><path d="M194.234 170.792a.49.49 0 0 1 .037-.702 10858 10858 0 0 0 82.632-75.408c.203-.186.477-.221.702.025a.494.494 0 0 1-.031.697 10855 10855 0 0 1-82.644 75.419.5.5 0 0 1-.696-.031"></path><path d="M207.161 182.282a.48.48 0 0 1-.038-.611c20.681-30.493 44.801-60.555 69.755-86.967a.494.494 0 0 1 .698-.016c.217.175.208.5.016.698-24.922 26.361-49.011 56.394-69.66 86.835a.486.486 0 0 1-.686.129c-.034-.025-.063-.044-.091-.075z"></path><path d="M220.014 188.566c-.143-.243-.148-.385-.094-.525a354 354 0 0 1 8.412-18.575 48 48 0 0 0-1.33-2.631.49.49 0 0 1-.01-.444c10.531-22.685 27.779-47.471 49.872-71.675a.49.49 0 0 1 .688-.04c.211.168.227.483.052.688-18.675 22.085-35.119 47.404-48.179 74.109 3.418 7.454 3.888 13.553 1.232 17-1.407 1.83-4.353 3.697-10.401 2.245a.47.47 0 0 1-.248-.147zm8.856-17.929a360 360 0 0 0-7.808 17.242c4.094.862 7.135.176 8.824-2.013 2.299-2.985 1.893-8.531-1.016-15.229m-.869-4.059q.473.891.902 1.755c9.55-19.412 20.875-38.094 33.537-55.315-14.749 18.281-26.498 36.513-34.439 53.56"></path><path d="M253.855 125.856a.49.49 0 0 1-.116-.449.496.496 0 0 1 .596-.363c.579.138 1.351.202 1.722-.284.396-.521.43-1.808-.677-3.874a.493.493 0 0 1 .202-.671.5.5 0 0 1 .67.202c1.158 2.132 1.372 3.939.593 4.945-.314.412-1.087 1.04-2.731.641a.5.5 0 0 1-.247-.147zM234.943 157.255a.49.49 0 0 1-.116-.448.496.496 0 0 1 .596-.364c2.398.58 4.164.233 5.112-.996 1.489-1.938.875-5.892-1.651-10.575a.493.493 0 0 1 .201-.671.49.49 0 0 1 .671.202c2.761 5.113 3.333 9.354 1.562 11.652-.841 1.086-2.583 2.203-6.127 1.347a.5.5 0 0 1-.248-.147"></path><path d="M228.912 187.525a.5.5 0 0 1-.114-.472c9.592-33.209 26.204-65.131 48.042-92.326a.487.487 0 0 1 .69-.076c.211.17.25.484.075.69-21.751 27.092-38.31 58.898-47.867 91.973a.49.49 0 0 1-.612.333.46.46 0 0 1-.23-.14zM104.317 190.741c-12.087-22.361-14.804-41.443-7.336-51.144 5.005-6.5 14.013-8.399 26.051-5.499 17.302 4.673 37.319 5.292 58.386 1.872 1.513-1.701 4.457-3.249 10.113-1.88a.496.496 0 0 1-.014.963 185 185 0 0 1-9.573 1.839c-2.763 3.578-1.683 10.692 2.841 19.082a.54.54 0 0 1 .042.38.47.47 0 0 1-.244.291c-27.87 14.889-55.449 26.728-79.746 34.244a.5.5 0 0 1-.508-.135zm76.287-53.643c-20.853 3.27-40.654 2.59-57.816-2.041-11.617-2.799-20.27-1.02-25.018 5.142-7.185 9.33-4.503 27.855 7.163 49.606 24.017-7.463 51.228-19.147 78.751-33.821-4.298-8.12-5.382-14.903-3.073-18.903zm8.189-2.485c-2.26-.219-4.127.13-5.516 1.037 1.829-.314 3.672-.664 5.516-1.037"></path><path d="M99.584 137.602a.49.49 0 0 1-.123-.419.495.495 0 0 1 .579-.394c25.31 4.774 53.793 4.203 82.374-1.661a.49.49 0 0 1 .579.386.49.49 0 0 1-.386.58c-28.7 5.895-57.32 6.466-82.753 1.668a.5.5 0 0 1-.27-.148zM93.04 157.627a.47.47 0 0 1-.126-.337c0-.272.223-.498.5-.492 26.831.16 56.712-4.653 86.415-13.909a.484.484 0 0 1 .618.329.503.503 0 0 1-.317.619c-29.805 9.28-59.787 14.107-86.718 13.949a.49.49 0 0 1-.365-.164zM131.26 228.025c-10.599-11.593-20.018-24.423-27.02-37.381a.48.48 0 0 1-.022-.421.46.46 0 0 1 .308-.282c24.237-7.494 51.756-19.313 79.577-34.168a.5.5 0 0 1 .671.201c7.928 14.691 23.953 28.949 35.722 31.779.134.036.254.13.325.257a.5.5 0 0 1 .017.415c-12.084 28.812-19.921 58.096-22.669 84.675a.48.48 0 0 1-.211.351.45.45 0 0 1-.4.071c-20.36-4.909-45.573-22.84-66.292-45.503zm-25.864-37.318c20.533 37.654 61.484 74.101 91.839 81.731 2.797-26.364 10.555-55.339 22.467-83.869-11.83-3.169-27.57-17.179-35.56-31.701-27.511 14.663-54.71 26.347-78.74 33.833z"></path><path d="M130.78 227.514a.484.484 0 0 1 .038-.702c18.147-16.013 40.087-35.63 63.447-56.727a.5.5 0 0 1 .697.031.497.497 0 0 1-.038.702c-23.367 21.102-45.319 40.719-63.454 56.733a.493.493 0 0 1-.69-.037M164.139 257.166a.49.49 0 0 1-.082-.536c10.439-22.896 25.332-48.821 43.067-74.958a.49.49 0 0 1 .685-.129.49.49 0 0 1 .129.686c-17.697 26.091-32.563 51.958-42.983 74.814a.49.49 0 0 1-.65.243.5.5 0 0 1-.16-.114zM197.309 273.387a.47.47 0 0 1-.124-.384c2.526-24.419 9.329-51.107 19.76-77.616 1.906-8.949 5.279-18.708 10.059-28.996a.48.48 0 0 1 .433-.283.5.5 0 0 1 .449.257c4.786 8.863 5.809 16.199 2.795 20.109-1.376 1.789-4.22 3.619-9.998 2.339a358 358 0 0 0-2.787 6.871c-1.66 7.831-2.174 15.033-1.509 21.395 11.976 22.226 14.682 41.273 7.221 50.956-5.006 6.5-14.014 8.399-26.045 5.493a.5.5 0 0 1-.248-.147zm18.672-72.751c-9.277 24.65-15.374 49.324-17.771 72.04 11.416 2.666 19.917.857 24.615-5.237 7.222-9.375 4.476-28.057-7.36-49.969a.4.4 0 0 1-.051-.18c-.546-5.068-.348-10.646.573-16.648zm11.496-32.924c-3.385 7.394-6.035 14.501-7.916 21.211.125-.296.245-.586.365-.888a.5.5 0 0 1 .575-.288c4.381 1.052 7.627.404 9.391-1.888 2.632-3.413 1.718-10.158-2.415-18.158z"></path><path d="M220.27 270.701a.48.48 0 0 1-.123-.283c-2.567-26.065.43-54.897 8.661-83.354a.49.49 0 0 1 .613-.333.49.49 0 0 1 .333.612c-8.197 28.346-11.182 57.043-8.633 82.988a.496.496 0 0 1-.445.542.5.5 0 0 1-.406-.16z"></path><path d="M194.414 170.977c-4.124-4.511-7.79-9.499-10.507-14.539-5.495-10.184-5.956-18.452-1.202-21.587a.4.4 0 0 1 .174-.069c33.116-6.662 65.641-20.546 94.073-40.146a.493.493 0 0 1 .665.716c-21.608 26.939-37.814 58.388-46.856 90.936a.5.5 0 0 1-.085.168c-1.407 1.829-4.353 3.708-10.407 2.251-7.949-1.921-17.78-8.91-25.854-17.742zm-11.241-35.242c-4.209 2.863-3.594 10.607 1.6 20.239 7.929 14.691 23.954 28.949 35.722 31.779 4.34 1.045 7.561.419 9.335-1.814 8.806-31.63 24.347-62.221 45.01-88.67-27.87 18.702-59.499 31.981-91.672 38.46z"></path><path d="M185.212 134.571a.6.6 0 0 1-.125-.237.48.48 0 0 1 .392-.573c31.792-6.142 63.42-19.669 91.478-39.12.22-.156.507-.102.686.12.156.219.1.53-.119.686-27.325 19.572-57.063 33.272-86.013 39.611a.6.6 0 0 1-.219-.004c-2.147-.515-4.034-.623-5.614-.321a.5.5 0 0 1-.467-.151zm47.692-14.433c-13.963 5.965-28.313 10.565-42.726 13.66q.609.106 1.242.257c13.765-3.024 27.712-7.719 41.484-13.917"></path><path d="M183.974 156.534c-4.858-8.967-5.875-16.297-2.861-20.207 1.401-1.812 4.323-3.68 10.29-2.267 28.784-6.311 58.353-19.948 85.538-39.426a.504.504 0 0 1 .681.101.505.505 0 0 1-.084.688c-28.317 22.686-60.467 43.853-92.971 61.214a.5.5 0 0 1-.599-.098zm81.445-52.905c-23.882 15.226-49.178 26.008-73.907 31.417a.6.6 0 0 1-.218-.004c-4.381-1.052-7.627-.404-9.392 1.888-2.676 3.476-1.688 10.414 2.65 18.6 27.98-14.978 55.673-32.76 80.873-51.907z"></path><path d="M245.744 118.639c-1.224-2.23-1.438-4.037-.666-5.037.314-.412 1.088-1.04 2.731-.641a.493.493 0 1 1-.232.959c-.579-.138-1.345-.208-1.722.284-.396.52-.43 1.808.683 3.868a.496.496 0 0 1-.8.573zM214.487 139.073c-2.828-5.211-3.405-9.458-1.635-11.744.842-1.086 2.583-2.203 6.128-1.348a.496.496 0 0 1 .363.596.496.496 0 0 1-.596.364c-2.398-.58-4.164-.233-5.106.991-1.495 1.943-.875 5.891 1.652 10.574a.498.498 0 0 1-.801.573zM104.317 190.741c-12.087-22.361-14.804-41.443-7.336-51.144 5.005-6.5 14.013-8.399 26.051-5.499 17.302 4.673 37.319 5.292 58.386 1.872 1.513-1.701 4.457-3.249 10.113-1.88a.496.496 0 0 1-.014.963 185 185 0 0 1-9.573 1.839c-2.763 3.578-1.683 10.692 2.841 19.082a.54.54 0 0 1 .042.38.47.47 0 0 1-.244.291c-27.87 14.889-55.449 26.728-79.746 34.244a.5.5 0 0 1-.508-.135zm76.287-53.643c-20.853 3.27-40.654 2.59-57.816-2.041-11.617-2.799-20.27-1.02-25.018 5.142-7.185 9.33-4.503 27.855 7.163 49.606 24.017-7.463 51.228-19.147 78.751-33.821-4.298-8.12-5.382-14.903-3.073-18.903zm8.189-2.485c-2.26-.219-4.127.13-5.516 1.037 1.829-.314 3.672-.664 5.516-1.037"></path><path d="M185.212 134.571a.6.6 0 0 1-.125-.237.48.48 0 0 1 .392-.573c31.792-6.142 63.42-19.669 91.478-39.12.22-.156.507-.102.686.12.156.219.1.53-.119.686-27.325 19.572-57.063 33.272-86.013 39.611a.6.6 0 0 1-.219-.004c-2.147-.515-4.034-.623-5.614-.321a.5.5 0 0 1-.467-.151zm47.692-14.433c-13.963 5.965-28.313 10.565-42.726 13.66q.609.106 1.242.257c13.765-3.024 27.712-7.719 41.484-13.917"></path><path d="M231.144 183.947a.48.48 0 0 1-.116-.461c8.477-31.42 24.317-62.093 45.818-88.753a.49.49 0 0 1 .689-.076c.212.17.251.484.081.695-4.058 5.171-5.144 6.559-6.796 8.851-3.975 5.534-5.458 7.603-9.202 13.413a265 265 0 0 0-5.515 9.014l-.789 1.366c-.616 1.072-1.283 2.225-1.805 3.178a619 619 0 0 0-4.744 8.953c-.026.046-2.867 5.755-4.315 9.026-2.404 5.444-3.306 7.48-5.528 13.234a225 225 0 0 0-6.952 21.336c-.078.275-.345.44-.608.364a.5.5 0 0 1-.236-.147z"></path><path d="M220.016 188.567c-.143-.243-.148-.385-.094-.525a354 354 0 0 1 8.412-18.575 48 48 0 0 0-1.33-2.631.49.49 0 0 1-.01-.444c10.531-22.685 27.779-47.471 49.872-71.675a.49.49 0 0 1 .688-.04c.211.168.227.482.052.688-18.675 22.085-35.119 47.404-48.179 74.109 3.418 7.454 3.888 13.553 1.232 17-1.407 1.83-4.353 3.697-10.401 2.245a.47.47 0 0 1-.248-.147zm8.856-17.929a360 360 0 0 0-7.808 17.242c4.094.862 7.135.176 8.824-2.013 2.299-2.985 1.892-8.531-1.016-15.229m-.869-4.059q.473.891.902 1.754c9.549-19.411 20.875-38.093 33.537-55.314-14.749 18.281-26.498 36.513-34.439 53.56"></path><path d="M253.857 125.857a.49.49 0 0 1-.116-.449.496.496 0 0 1 .596-.363c.579.138 1.351.202 1.721-.285.396-.52.431-1.807-.676-3.873a.493.493 0 0 1 .202-.671.5.5 0 0 1 .67.202c1.158 2.132 1.372 3.939.593 4.945-.314.412-1.087 1.04-2.731.641a.5.5 0 0 1-.247-.147zM234.945 157.257a.49.49 0 0 1-.116-.448.495.495 0 0 1 .596-.364c2.398.58 4.164.233 5.112-.996 1.489-1.939.875-5.892-1.651-10.575a.493.493 0 0 1 .201-.671.49.49 0 0 1 .671.202c2.761 5.113 3.333 9.354 1.562 11.652-.841 1.086-2.583 2.203-6.127 1.347a.5.5 0 0 1-.248-.147M197.311 273.388a.47.47 0 0 1-.124-.384c2.526-24.419 9.329-51.107 19.76-77.616 1.906-8.949 5.279-18.708 10.059-28.996a.48.48 0 0 1 .433-.283.5.5 0 0 1 .449.257c4.786 8.863 5.809 16.199 2.795 20.109-1.376 1.789-4.22 3.619-9.998 2.339a358 358 0 0 0-2.787 6.871c-1.66 7.831-2.174 15.033-1.509 21.395 11.976 22.226 14.682 41.273 7.221 50.956-5.006 6.5-14.014 8.399-26.045 5.493a.5.5 0 0 1-.248-.147zm18.672-72.751c-9.277 24.65-15.374 49.324-17.771 72.04 11.416 2.666 19.917.857 24.615-5.237 7.222-9.375 4.476-28.057-7.361-49.969a.5.5 0 0 1-.051-.18c-.545-5.068-.347-10.646.574-16.648zm11.496-32.924c-3.385 7.394-6.035 14.501-7.916 21.211.125-.296.245-.586.365-.888a.5.5 0 0 1 .575-.288c4.381 1.052 7.626.404 9.391-1.888 2.632-3.413 1.718-10.158-2.415-18.158z"></path><path d="M231.144 183.947a.48.48 0 0 1-.116-.461c8.477-31.42 24.317-62.093 45.818-88.753a.49.49 0 0 1 .689-.076c.212.17.251.484.081.695-4.058 5.171-5.144 6.559-6.796 8.851-3.975 5.534-5.458 7.603-9.202 13.413a265 265 0 0 0-5.515 9.014l-.789 1.366c-.616 1.072-1.283 2.225-1.805 3.178a619 619 0 0 0-4.744 8.953c-.026.046-2.867 5.755-4.315 9.026-2.404 5.444-3.306 7.48-5.528 13.234a225 225 0 0 0-6.952 21.336c-.078.275-.345.44-.608.364a.5.5 0 0 1-.236-.147z"></path><path d="M229.925 186.487a.49.49 0 0 1-.109-.466c4.87-17.521 11.807-34.725 20.539-51.093.726-1.41 1.19-2.253 2.423-4.433.604-1.073 1.208-2.146 1.83-3.212.193-.346.398-.703.617-1.084.533-.94 1.229-2.085 1.868-3.145l.812-1.353c1.605-2.69 3.636-5.769 5.788-9.037.025-.034 2.722-4.118 6.345-9.048a261 261 0 0 1 6.27-8.2c.151-.194.307-.382.458-.576.263-.331.572-.365.789-.19.211.17.25.485.075.69a259 259 0 0 0-22.156 32.408c-.777 1.366-1.374 2.41-1.85 3.252a313 313 0 0 0-2.39 4.369c-.058.11-.111.226-.175.341-3.038 5.878-3.428 6.641-4.527 8.993l-.634 1.349c-.504 1.072-1.046 2.212-1.461 3.158-2.286 5.178-2.825 6.395-3.813 8.882-3.354 8.442-5.721 15.029-8.642 25.642-.283 1.04-.72 1.949-1.299 2.715a.506.506 0 0 1-.615.145.44.44 0 0 1-.143-.107"></path><path d="M220.016 188.567c-.143-.243-.148-.385-.094-.525a354 354 0 0 1 8.412-18.575 48 48 0 0 0-1.33-2.631.49.49 0 0 1-.01-.444c10.531-22.685 27.779-47.471 49.872-71.675a.49.49 0 0 1 .688-.04c.211.168.227.482.052.688-18.675 22.085-35.119 47.404-48.179 74.109 3.418 7.454 3.888 13.553 1.232 17-1.407 1.83-4.353 3.697-10.401 2.245a.47.47 0 0 1-.248-.147zm8.856-17.929a360 360 0 0 0-7.808 17.242c4.094.862 7.135.176 8.824-2.013 2.299-2.985 1.892-8.531-1.016-15.229m-.869-4.059q.473.891.902 1.754c9.549-19.411 20.875-38.093 33.537-55.314-14.749 18.281-26.498 36.513-34.439 53.56"></path><path d="M253.857 125.857a.49.49 0 0 1-.116-.449.496.496 0 0 1 .596-.363c.579.138 1.351.202 1.721-.285.396-.52.431-1.807-.676-3.873a.493.493 0 0 1 .202-.671.5.5 0 0 1 .67.202c1.158 2.132 1.372 3.939.593 4.945-.314.412-1.087 1.04-2.731.641a.5.5 0 0 1-.247-.147zM234.945 157.257a.49.49 0 0 1-.116-.448.495.495 0 0 1 .596-.364c2.398.58 4.164.233 5.112-.996 1.489-1.939.875-5.892-1.651-10.575a.493.493 0 0 1 .201-.671.49.49 0 0 1 .671.202c2.761 5.113 3.333 9.354 1.562 11.652-.841 1.086-2.583 2.203-6.127 1.347a.5.5 0 0 1-.248-.147M197.311 273.388a.47.47 0 0 1-.124-.384c2.526-24.419 9.329-51.107 19.76-77.616 1.906-8.949 5.279-18.708 10.059-28.996a.48.48 0 0 1 .433-.283.5.5 0 0 1 .449.257c4.786 8.863 5.809 16.199 2.795 20.109-1.376 1.789-4.22 3.619-9.998 2.339a358 358 0 0 0-2.787 6.871c-1.66 7.831-2.174 15.033-1.509 21.395 11.976 22.226 14.682 41.273 7.221 50.956-5.006 6.5-14.014 8.399-26.045 5.493a.5.5 0 0 1-.248-.147zm18.672-72.751c-9.277 24.65-15.374 49.324-17.771 72.04 11.416 2.666 19.917.857 24.615-5.237 7.222-9.375 4.476-28.057-7.361-49.969a.5.5 0 0 1-.051-.18c-.545-5.068-.347-10.646.574-16.648zm11.496-32.924c-3.385 7.394-6.035 14.501-7.916 21.211.125-.296.245-.586.365-.888a.5.5 0 0 1 .575-.288c4.381 1.052 7.626.404 9.391-1.888 2.632-3.413 1.718-10.158-2.415-18.158z"></path><path d="M229.925 186.487a.49.49 0 0 1-.109-.466c4.87-17.521 11.807-34.725 20.539-51.093.726-1.41 1.19-2.253 2.423-4.433.604-1.073 1.208-2.146 1.83-3.212.193-.346.398-.703.617-1.084.533-.94 1.229-2.085 1.868-3.145l.812-1.353c1.605-2.69 3.636-5.769 5.788-9.037.025-.034 2.722-4.118 6.345-9.048a261 261 0 0 1 6.27-8.2c.151-.194.307-.382.458-.576.263-.331.572-.365.789-.19.211.17.25.485.075.69a259 259 0 0 0-22.156 32.408c-.777 1.366-1.374 2.41-1.85 3.252a313 313 0 0 0-2.39 4.369c-.058.11-.111.226-.175.341-3.038 5.878-3.428 6.641-4.527 8.993l-.634 1.349c-.504 1.072-1.046 2.212-1.461 3.158-2.286 5.178-2.825 6.395-3.813 8.882-3.354 8.442-5.721 15.029-8.642 25.642-.283 1.04-.72 1.949-1.299 2.715a.506.506 0 0 1-.615.145.44.44 0 0 1-.143-.107"></path><path d="M231.144 183.946a.48.48 0 0 1-.115-.46c.461-1.712.455-3.799-.01-6.214-.604-3.126-1.953-6.644-4.004-10.449-7.728-14.297-23.489-28.491-35.137-31.635q-.288-.077-.585-.144a.5.5 0 0 1-.38-.49.496.496 0 0 1 .388-.479c28.813-6.304 58.436-19.944 85.645-39.445a.5.5 0 0 1 .647.065c.189.156.181.457.03.651-21.426 26.57-37.207 57.133-45.635 88.384a.507.507 0 0 1-.608.363.5.5 0 0 1-.236-.147m-13.841-32.254c4.141 4.531 7.823 9.56 10.578 14.667 2.107 3.902 3.487 7.505 4.111 10.725.129.674.229 1.329.29 1.952 8.411-28.78 22.992-56.83 42.415-81.603-25.933 18.086-53.934 30.899-81.28 37.185 7.622 2.48 16.482 8.976 23.886 17.074"></path><path d="M220.016 188.566c-.143-.243-.148-.385-.094-.525a354 354 0 0 1 8.412-18.575 48 48 0 0 0-1.33-2.631.49.49 0 0 1-.01-.444c10.531-22.685 27.779-47.471 49.872-71.675a.49.49 0 0 1 .688-.04c.211.168.227.483.052.688-18.675 22.085-35.119 47.404-48.179 74.109 3.418 7.454 3.888 13.553 1.232 17-1.407 1.83-4.353 3.697-10.401 2.245a.47.47 0 0 1-.248-.147zm8.856-17.929a360 360 0 0 0-7.808 17.242c4.094.862 7.135.176 8.824-2.013 2.299-2.985 1.892-8.531-1.016-15.229m-.869-4.059q.473.891.902 1.755c9.549-19.412 20.875-38.094 33.537-55.315-14.749 18.281-26.498 36.513-34.439 53.56"></path><path d="M253.857 125.857a.49.49 0 0 1-.116-.449.496.496 0 0 1 .596-.363c.579.138 1.351.202 1.721-.285.396-.52.431-1.807-.676-3.873a.493.493 0 0 1 .202-.671.5.5 0 0 1 .67.202c1.158 2.132 1.372 3.939.593 4.945-.314.412-1.087 1.04-2.731.641a.5.5 0 0 1-.247-.147zM234.945 157.256a.49.49 0 0 1-.116-.448.495.495 0 0 1 .596-.364c2.398.58 4.164.233 5.112-.996 1.489-1.939.875-5.892-1.651-10.575a.493.493 0 0 1 .201-.671.49.49 0 0 1 .671.202c2.761 5.113 3.333 9.354 1.562 11.652-.841 1.086-2.583 2.203-6.127 1.347a.5.5 0 0 1-.248-.147"></path><path d="M231.452 179.763a.51.51 0 0 1-.115-.472c8.308-29.252 24.042-58.493 45.516-84.564a.497.497 0 0 1 .695-.07.5.5 0 0 1 .069.696c-21.386 25.968-37.062 55.087-45.323 84.205a.487.487 0 0 1-.606.339.46.46 0 0 1-.23-.14z"></path><path d="M191.04 134.903a.5.5 0 0 1-.133-.343.51.51 0 0 1 .389-.48c28.813-6.303 58.435-19.943 85.644-39.444a.496.496 0 0 1 .653.739c-22.025 24.13-39.216 48.83-49.708 71.434a.48.48 0 0 1-.432.282.5.5 0 0 1-.45-.256c-7.929-14.691-23.959-28.944-35.722-31.78a.47.47 0 0 1-.248-.147zm82.87-36.92c-25.713 17.806-53.422 30.42-80.504 36.635 11.531 3.771 26.234 17.043 34.006 30.881 10.09-21.422 26.103-44.672 46.498-67.515"></path><path d="M247.329 113.776a.494.494 0 0 1 .48-.812c2.797.668 6.572 4.017 8.433 7.452.131.243.04.54-.202.671a.5.5 0 0 1-.671-.201c-1.741-3.217-5.236-6.346-7.792-6.963a.47.47 0 0 1-.248-.147M218.497 126.796a.48.48 0 0 1-.116-.449.496.496 0 0 1 .596-.364c6.867 1.654 16.179 9.92 20.773 18.426a.493.493 0 0 1-.201.671.507.507 0 0 1-.671-.201c-4.48-8.294-13.507-16.335-20.14-17.931a.5.5 0 0 1-.248-.147z"></path><path d="M216.822 152.676a.49.49 0 0 1 .019-.685c15.73-15.376 36.502-35.193 60.051-57.31a.5.5 0 0 1 .697.02.495.495 0 0 1-.02.696c-23.549 22.117-44.309 41.923-60.038 57.299a.495.495 0 0 1-.698-.008z"></path><path d="M203.895 141.186a.487.487 0 0 1 .166-.785c22.287-9.502 47.485-25.32 72.855-45.742.209-.169.508-.102.695.078a.495.495 0 0 1-.079.694c-25.449 20.472-50.72 36.334-73.093 45.88a.49.49 0 0 1-.562-.12zM197.309 273.387a.47.47 0 0 1-.124-.384c2.526-24.419 9.329-51.107 19.76-77.616 1.906-8.949 5.279-18.708 10.059-28.996a.48.48 0 0 1 .433-.283.5.5 0 0 1 .449.257c4.786 8.863 5.809 16.199 2.795 20.109-1.376 1.789-4.22 3.619-9.998 2.339a358 358 0 0 0-2.787 6.871c-1.66 7.831-2.174 15.033-1.509 21.395 11.976 22.226 14.682 41.273 7.221 50.956-5.006 6.5-14.014 8.399-26.045 5.493a.5.5 0 0 1-.248-.147zm18.672-72.751c-9.277 24.65-15.374 49.324-17.771 72.04 11.416 2.666 19.917.857 24.615-5.237 7.222-9.375 4.476-28.057-7.36-49.969a.4.4 0 0 1-.051-.18c-.546-5.068-.348-10.646.573-16.648zm11.496-32.924c-3.385 7.394-6.035 14.501-7.916 21.211.125-.296.245-.586.365-.888a.5.5 0 0 1 .575-.288c4.381 1.052 7.627.404 9.391-1.888 2.632-3.413 1.718-10.158-2.415-18.158z"></path><path d="M226.808 250.671a.47.47 0 0 1-.119-.242c-4.088-21.449-2.482-46.045 4.651-71.134a.497.497 0 0 1 .607-.339.49.49 0 0 1 .339.606c-7.085 24.943-8.69 49.379-4.631 70.685a.493.493 0 0 1-.387.58.5.5 0 0 1-.454-.15zM122.546 134.918a.5.5 0 0 1-.115-.461.495.495 0 0 1 .595-.352c.655.159 1.309.331 1.975.514 19.552 4.879 42.425 4.696 66.305-.526a.6.6 0 0 1 .219.004c12.002 2.887 28.307 17.366 36.356 32.275.07.139.081.299.009.443-8.978 19.331-12.957 36.75-11.501 50.366a.496.496 0 0 1-.349.522.51.51 0 0 1-.581-.238c-20.119-37.252-60.372-73.454-90.714-81.888a76 76 0 0 1-1.975-.513.5.5 0 0 1-.236-.147zm68.852.155c-20.829 4.548-40.905 5.274-58.71 2.17 28.804 11.594 63.662 44.026 82.524 77.71-.816-13.375 3.198-30.012 11.676-48.342-7.945-14.573-23.8-28.659-35.49-31.538"></path><path d="M189.069 180.783a.497.497 0 0 1-.006-.662c4.664-5.202 14.267-14.933 27.776-28.131a.487.487 0 0 1 .697.007c.18.209.184.511-.008.697-13.49 13.182-23.081 22.901-27.726 28.087a.49.49 0 0 1-.733.002M155.718 151.138a.5.5 0 0 1-.129-.402.485.485 0 0 1 .557-.419c12.295 1.647 28.863-1.778 47.926-9.916a.49.49 0 0 1 .644.259.487.487 0 0 1-.259.645c-19.226 8.208-35.973 11.66-48.444 9.982a.5.5 0 0 1-.3-.155z"></path><path d="M231.144 183.946a.48.48 0 0 1-.115-.46c.461-1.712.455-3.799-.01-6.214-.604-3.126-1.953-6.644-4.004-10.449-7.728-14.297-23.489-28.491-35.137-31.635q-.288-.077-.585-.144a.5.5 0 0 1-.38-.49.496.496 0 0 1 .388-.479c28.813-6.304 58.436-19.944 85.645-39.445a.5.5 0 0 1 .647.065c.189.156.181.457.03.651-21.426 26.57-37.207 57.133-45.635 88.384a.507.507 0 0 1-.608.363.5.5 0 0 1-.236-.147m-13.841-32.254c4.141 4.531 7.823 9.56 10.578 14.667 2.107 3.902 3.487 7.505 4.111 10.725.129.674.229 1.329.29 1.952 8.411-28.78 22.992-56.83 42.415-81.603-25.933 18.086-53.934 30.899-81.28 37.185 7.622 2.48 16.482 8.976 23.886 17.074M107.495 134.082a.5.5 0 0 1-.126-.348.48.48 0 0 1 .399-.467c4.33-.836 9.456-.555 15.252.844q1.374.373 2.759.702c4.955 1.185 10.286 1.753 13.025 1.987 6.945.587 12.394.493 15.655.431.716-.01 7.037-.142 14.863-1.018 6.995-.782 10.631-1.448 16.14-2.457a.504.504 0 0 1 .586.393.49.49 0 0 1-.387.58c-27.372 5.292-54.315 5.121-77.919-.5a.5.5 0 0 1-.247-.147m24.723 2.957c-2.12-.313-4.431-.723-6.666-1.26-.935-.231-1.859-.461-2.776-.709-4.486-1.081-8.566-1.481-12.15-1.191 6.944 1.515 14.169 2.57 21.592 3.16"></path><path d="M183.974 156.534c-4.858-8.967-5.875-16.297-2.861-20.207 1.401-1.812 4.323-3.68 10.29-2.267 28.784-6.311 58.353-19.948 85.538-39.426a.504.504 0 0 1 .681.101.505.505 0 0 1-.084.688c-28.317 22.686-60.467 43.853-92.971 61.214a.5.5 0 0 1-.599-.098zm81.445-52.905c-23.882 15.226-49.178 26.008-73.907 31.417a.6.6 0 0 1-.218-.004c-4.381-1.052-7.627-.404-9.392 1.888-2.676 3.476-1.688 10.414 2.65 18.6 27.98-14.978 55.673-32.76 80.873-51.907z"></path><path d="M104.317 190.741c-12.087-22.361-14.804-41.443-7.336-51.144 5.005-6.5 14.013-8.399 26.051-5.499 17.302 4.673 37.319 5.292 58.386 1.872 1.513-1.701 4.457-3.249 10.113-1.88a.496.496 0 0 1-.014.963 185 185 0 0 1-9.573 1.839c-2.763 3.578-1.683 10.692 2.841 19.082a.54.54 0 0 1 .042.38.47.47 0 0 1-.244.291c-27.87 14.889-55.449 26.728-79.746 34.244a.5.5 0 0 1-.508-.135zm76.287-53.643c-20.853 3.27-40.654 2.59-57.816-2.041-11.617-2.799-20.27-1.02-25.018 5.142-7.185 9.33-4.503 27.855 7.163 49.606 24.017-7.463 51.228-19.147 78.751-33.821-4.298-8.12-5.382-14.903-3.073-18.903zm8.189-2.485c-2.26-.219-4.127.13-5.516 1.037 1.829-.314 3.672-.664 5.516-1.037"></path><path d="M155.011 170.962c-7.182-13.268-8.708-24.138-4.262-29.912 2.958-3.836 8.254-4.966 15.314-3.262a.495.495 0 0 1 .363.596.496.496 0 0 1-.596.363c-6.65-1.602-11.597-.599-14.298 2.911-4.139 5.368-2.536 16.112 4.285 28.737a.493.493 0 0 1-.201.671.5.5 0 0 1-.599-.098zM128.283 182.343c-9.694-17.909-11.775-32.594-5.783-40.368 3.963-5.151 11.091-6.655 20.601-4.363a.495.495 0 0 1 .364.595.496.496 0 0 1-.596.364c-9.095-2.196-15.875-.807-19.58 4.006-5.659 7.346-3.494 21.999 5.8 39.198a.493.493 0 0 1-.795.568z"></path><path d="M52.594 199.388c-19.313-35.738-23.69-66.258-11.769-81.739 7.963-10.335 22.314-13.35 41.516-8.718a.5.5 0 0 1 .276.178c8.941 11.638 22.913 20.283 40.415 25 .257.07.41.337.351.595a.485.485 0 0 1-.589.358c-11.629-2.8-20.282-1.021-25.03 5.141-7.223 9.375-4.476 28.057 7.354 49.963a.48.48 0 0 1 .023.421.46.46 0 0 1-.309.282c-21.365 6.611-39.309 9.609-51.908 8.669a.48.48 0 0 1-.33-.162zm29.35-89.54c-18.712-4.469-32.649-1.571-40.336 8.41-11.65 15.12-7.287 45.143 11.66 80.332 12.343.857 29.858-2.065 50.694-8.475-11.778-22.034-14.398-40.887-6.987-50.514 3.944-5.111 10.367-7.385 18.803-6.702-14.389-5.027-25.99-12.911-33.833-23.051"></path><path d="M107.495 134.082a.5.5 0 0 1-.126-.348.48.48 0 0 1 .399-.467c4.33-.836 9.456-.555 15.252.844q1.374.373 2.759.702c4.955 1.185 10.286 1.753 13.025 1.987 6.945.587 12.394.493 15.655.431.716-.01 7.037-.142 14.863-1.018 6.995-.782 10.631-1.448 16.14-2.457a.504.504 0 0 1 .586.393.49.49 0 0 1-.387.58c-27.372 5.292-54.315 5.121-77.919-.5a.5.5 0 0 1-.247-.147m24.723 2.957c-2.12-.313-4.431-.723-6.666-1.26-.935-.231-1.859-.461-2.776-.709-4.486-1.081-8.566-1.481-12.15-1.191 6.944 1.515 14.169 2.57 21.592 3.16"></path><path d="M125.307 135.62a.495.495 0 0 1 .474-.818c1.849.425 6.175 1.404 12.907 1.981 6.526.551 11.518.525 15.683.45 1.16-.02 7.304-.16 14.881-1.011a196 196 0 0 0 16.229-2.471c1.718-.337 3.747-.223 6.04.328a.49.49 0 0 1 .375.484.5.5 0 0 1-.389.479c-23.63 5.175-46.44 5.425-65.959.719a.46.46 0 0 1-.247-.147zm63.482-1c-1.142-.11-2.185-.074-3.115.11a198 198 0 0 1-16.301 2.479c-4.819.536-9.058.791-11.825.91 10.07-.143 20.559-1.314 31.247-3.505z"></path><path d="M183.974 156.534c-4.858-8.967-5.875-16.297-2.861-20.207 1.401-1.812 4.323-3.68 10.29-2.267 28.784-6.311 58.353-19.948 85.538-39.426a.504.504 0 0 1 .681.101.505.505 0 0 1-.084.688c-28.317 22.686-60.467 43.853-92.971 61.214a.5.5 0 0 1-.599-.098zm81.445-52.905c-23.882 15.226-49.178 26.008-73.907 31.417a.6.6 0 0 1-.218-.004c-4.381-1.052-7.627-.404-9.392 1.888-2.676 3.476-1.688 10.414 2.65 18.6 27.98-14.978 55.673-32.76 80.873-51.907z"></path><path d="M104.317 190.741c-12.087-22.361-14.804-41.443-7.336-51.144 5.005-6.5 14.013-8.399 26.051-5.499 17.302 4.673 37.319 5.292 58.386 1.872 1.513-1.701 4.457-3.249 10.113-1.88a.496.496 0 0 1-.014.963 185 185 0 0 1-9.573 1.839c-2.763 3.578-1.683 10.692 2.841 19.082a.54.54 0 0 1 .042.38.47.47 0 0 1-.244.291c-27.87 14.889-55.449 26.728-79.746 34.244a.5.5 0 0 1-.508-.135zm76.287-53.643c-20.853 3.27-40.654 2.59-57.816-2.041-11.617-2.799-20.27-1.02-25.018 5.142-7.185 9.33-4.503 27.855 7.163 49.606 24.017-7.463 51.228-19.147 78.751-33.821-4.298-8.12-5.382-14.903-3.073-18.903zm8.189-2.485c-2.26-.219-4.127.13-5.516 1.037 1.829-.314 3.672-.664 5.516-1.037"></path><path d="M155.011 170.962c-7.182-13.268-8.708-24.138-4.262-29.912 2.958-3.836 8.254-4.966 15.314-3.262a.495.495 0 0 1 .363.596.496.496 0 0 1-.596.363c-6.65-1.602-11.597-.599-14.298 2.911-4.139 5.368-2.536 16.112 4.285 28.737a.493.493 0 0 1-.201.671.5.5 0 0 1-.599-.098zM128.283 182.343c-9.694-17.909-11.775-32.594-5.783-40.368 3.963-5.151 11.091-6.655 20.601-4.363a.495.495 0 0 1 .364.595.496.496 0 0 1-.596.364c-9.095-2.196-15.875-.807-19.58 4.006-5.659 7.346-3.494 21.999 5.8 39.198a.493.493 0 0 1-.795.568z"></path><path d="M125.307 135.62a.495.495 0 0 1 .474-.818c1.849.425 6.175 1.404 12.907 1.981 6.526.551 11.518.525 15.683.45 1.16-.02 7.304-.16 14.881-1.011a196 196 0 0 0 16.229-2.471c1.718-.337 3.747-.223 6.04.328a.49.49 0 0 1 .375.484.5.5 0 0 1-.389.479c-23.63 5.175-46.44 5.425-65.959.719a.46.46 0 0 1-.247-.147zm63.482-1c-1.142-.11-2.185-.074-3.115.11a198 198 0 0 1-16.301 2.479c-4.819.536-9.058.791-11.825.91 10.07-.143 20.559-1.314 31.247-3.505z"></path><path d="M131.259 228.026c-10.599-11.593-20.018-24.423-27.02-37.382-10.793-19.991-14.152-37.423-9.224-47.834 2.418-5.108 6.83-8.406 12.747-9.55a.5.5 0 0 1 .207.004c23.463 5.591 50.258 5.76 77.486.498a.493.493 0 1 1 .205.967c-.913.178-1.731.496-2.419.945-4.29 2.824-3.707 10.596 1.526 20.294 7.929 14.691 23.953 28.95 35.722 31.78 4.387 1.058 7.639.405 9.398-1.894.508-.657.881-1.451 1.129-2.356a.5.5 0 0 1 .608-.363.505.505 0 0 1 .351.607c-7.227 26.781-8.995 53.516-5.12 77.32a.5.5 0 0 1-.015.207c-3.11 11.533-13.789 16-29.294 12.253-20.361-4.909-45.574-22.84-66.293-45.502zm-23.412-93.768c-5.626 1.115-9.641 4.141-11.935 8.988-4.797 10.121-1.441 27.228 9.199 46.941 20.55 38.068 62.128 75.028 92.672 82.394 15.085 3.634 25.054-.434 28.088-11.456-3.707-22.828-2.249-48.328 4.206-73.974-1.591 1.567-4.51 2.845-9.809 1.568-12.002-2.899-28.313-17.371-36.356-32.274-5.201-9.627-5.896-17.545-1.937-21.029-26.057 4.576-51.611 4.189-74.123-1.152z"></path><path d="M183.972 156.535c-4.858-8.967-5.875-16.297-2.861-20.207 1.401-1.812 4.323-3.68 10.29-2.267 28.784-6.311 58.354-19.948 85.538-39.426a.504.504 0 0 1 .681.101.505.505 0 0 1-.084.688c-28.317 22.686-60.467 43.853-92.971 61.214a.5.5 0 0 1-.599-.098zm81.445-52.905c-23.882 15.226-49.178 26.008-73.907 31.417a.6.6 0 0 1-.218-.004c-4.381-1.052-7.627-.404-9.392 1.888-2.675 3.476-1.688 10.414 2.65 18.6 27.98-14.978 55.673-32.76 80.873-51.907z"></path><path d="M182.141 135.942a.56.56 0 0 1-.125-.236.49.49 0 0 1 .387-.58c33.354-6.835 66.044-20.835 94.543-40.485a.5.5 0 0 1 .686.12c.156.219.1.53-.12.686-28.608 19.728-61.431 33.781-94.916 40.645a.51.51 0 0 1-.467-.151z"></path><path d="M179.604 143.705a.503.503 0 0 1 .22-.812c34.662-10.791 68.248-27.477 97.122-48.252a.49.49 0 0 1 .693.114.497.497 0 0 1-.114.693c-28.96 20.841-62.649 37.576-97.407 48.398a.49.49 0 0 1-.514-.141"></path><path d="M194.414 170.978c-4.124-4.512-7.79-9.499-10.507-14.54a.55.55 0 0 1-.042-.38.49.49 0 0 1 .244-.291c32.455-17.327 64.545-38.461 92.812-61.114a.49.49 0 0 1 .661.042c.18.197.185.475.023.669-23.053 27.253-42.68 59.431-56.779 93.061a.51.51 0 0 1-.569.294c-7.949-1.921-17.78-8.91-25.855-17.742zm-9.4-14.567c7.913 14.365 23.472 28.213 35.077 31.248 13.485-32.073 31.996-62.822 53.692-89.231-27.256 21.455-57.839 41.439-88.769 57.983"></path><path d="M194.234 170.793a.49.49 0 0 1 .037-.702 10858 10858 0 0 0 82.632-75.408c.203-.186.477-.221.702.025a.494.494 0 0 1-.031.697 10855 10855 0 0 1-82.644 75.419.5.5 0 0 1-.696-.031"></path><path d="M207.161 182.283a.48.48 0 0 1-.038-.611c20.681-30.493 44.801-60.555 69.755-86.967a.494.494 0 0 1 .698-.016c.217.175.208.5.016.698-24.922 26.361-49.011 56.394-69.66 86.835a.486.486 0 0 1-.686.129c-.034-.025-.063-.044-.091-.075z"></path><path d="M220.014 188.566c-.143-.243-.148-.385-.094-.525a354 354 0 0 1 8.412-18.575 48 48 0 0 0-1.33-2.631.49.49 0 0 1-.01-.444c10.531-22.685 27.779-47.471 49.872-71.675a.49.49 0 0 1 .688-.04c.211.168.227.483.052.688-18.675 22.085-35.119 47.404-48.179 74.109 3.418 7.454 3.888 13.553 1.232 17-1.407 1.83-4.353 3.697-10.401 2.245a.47.47 0 0 1-.248-.147zm8.856-17.929a360 360 0 0 0-7.808 17.242c4.094.862 7.135.176 8.824-2.013 2.299-2.985 1.893-8.531-1.016-15.229m-.869-4.059q.473.891.902 1.755c9.55-19.412 20.875-38.094 33.537-55.315-14.749 18.281-26.498 36.513-34.439 53.56"></path><path d="M228.912 187.525a.5.5 0 0 1-.114-.472c9.592-33.209 26.204-65.131 48.042-92.326a.487.487 0 0 1 .69-.076c.211.17.25.484.075.69-21.751 27.092-38.31 58.898-47.867 91.973a.49.49 0 0 1-.612.333.46.46 0 0 1-.23-.14zM104.317 190.742c-12.087-22.361-14.804-41.443-7.336-51.144 5.005-6.5 14.013-8.399 26.051-5.499 17.302 4.673 37.319 5.292 58.386 1.872 1.513-1.701 4.457-3.249 10.113-1.88a.496.496 0 0 1-.014.963 185 185 0 0 1-9.573 1.839c-2.763 3.578-1.683 10.692 2.841 19.082a.54.54 0 0 1 .042.38.47.47 0 0 1-.244.291c-27.87 14.889-55.449 26.728-79.746 34.244a.5.5 0 0 1-.508-.135zm76.287-53.643c-20.853 3.27-40.654 2.59-57.816-2.041-11.617-2.799-20.27-1.02-25.018 5.142-7.185 9.33-4.503 27.855 7.163 49.606 24.017-7.463 51.228-19.147 78.751-33.821-4.298-8.12-5.382-14.903-3.073-18.903zm8.189-2.485c-2.26-.219-4.127.13-5.516 1.037 1.829-.314 3.672-.664 5.516-1.037"></path><path d="M155.011 170.963c-7.182-13.268-8.708-24.138-4.262-29.912 2.958-3.836 8.254-4.966 15.314-3.262a.495.495 0 0 1 .363.596.496.496 0 0 1-.596.363c-6.65-1.602-11.597-.599-14.298 2.911-4.139 5.368-2.536 16.111 4.285 28.737a.493.493 0 0 1-.201.671.5.5 0 0 1-.599-.098zM128.283 182.344c-9.694-17.909-11.775-32.594-5.783-40.368 3.963-5.151 11.091-6.655 20.601-4.363a.495.495 0 0 1 .364.595.496.496 0 0 1-.596.364c-9.095-2.196-15.875-.807-19.58 4.006-5.659 7.346-3.494 21.999 5.8 39.198a.493.493 0 0 1-.795.568z"></path><path d="M99.584 137.603a.49.49 0 0 1-.123-.419.495.495 0 0 1 .579-.394c25.31 4.774 53.793 4.203 82.374-1.661a.49.49 0 0 1 .579.386.49.49 0 0 1-.386.58c-28.7 5.895-57.32 6.466-82.753 1.668a.5.5 0 0 1-.27-.148zM93.04 157.628a.47.47 0 0 1-.126-.337c0-.272.223-.498.5-.492 26.831.16 56.712-4.653 86.415-13.909a.484.484 0 0 1 .618.329.5.5 0 0 1-.317.618c-29.805 9.281-59.787 14.108-86.718 13.95a.49.49 0 0 1-.365-.164zM131.26 228.026c-10.599-11.593-20.018-24.423-27.02-37.381a.48.48 0 0 1-.022-.421.46.46 0 0 1 .308-.282c24.237-7.494 51.756-19.313 79.577-34.168a.5.5 0 0 1 .671.201c7.928 14.691 23.953 28.949 35.722 31.779.134.036.254.13.325.257a.5.5 0 0 1 .017.415c-12.084 28.812-19.921 58.096-22.669 84.675a.48.48 0 0 1-.211.351.45.45 0 0 1-.4.071c-20.36-4.909-45.573-22.84-66.292-45.503zm-25.864-37.318c20.533 37.654 61.484 74.101 91.839 81.731 2.797-26.364 10.555-55.339 22.467-83.869-11.83-3.169-27.57-17.179-35.56-31.701-27.511 14.663-54.71 26.347-78.74 33.833z"></path><path d="M170.631 192.565c-6.153-6.73-11.623-14.175-15.683-21.699a.493.493 0 0 1 .202-.671.493.493 0 0 1 .671.201c11.89 22.022 35.93 43.401 53.589 47.658a.494.494 0 0 1-.233.959c-11.844-2.851-26.498-13.282-38.534-26.447zM149.48 211.672c-8.345-9.128-15.765-19.226-21.265-29.427a.494.494 0 0 1 .202-.671.493.493 0 0 1 .671.201c16.152 29.927 48.827 58.981 72.837 64.774a.494.494 0 0 1-.232.959c-16.038-3.871-35.9-17.993-52.213-35.836"></path><path d="M130.78 227.515a.484.484 0 0 1 .038-.702c18.147-16.013 40.087-35.63 63.447-56.727a.5.5 0 0 1 .697.031.497.497 0 0 1-.038.702c-23.367 21.102-45.319 40.719-63.454 56.733a.493.493 0 0 1-.69-.037M164.139 257.167a.49.49 0 0 1-.082-.536c10.439-22.896 25.332-48.821 43.067-74.958a.49.49 0 0 1 .685-.129.49.49 0 0 1 .129.686c-17.697 26.091-32.563 51.958-42.983 74.814a.49.49 0 0 1-.65.243.5.5 0 0 1-.16-.114zM197.309 273.386a.47.47 0 0 1-.124-.384c2.526-24.419 9.329-51.107 19.76-77.616 1.906-8.949 5.279-18.708 10.059-28.996a.48.48 0 0 1 .433-.283.5.5 0 0 1 .449.257c4.786 8.863 5.809 16.199 2.795 20.109-1.376 1.789-4.22 3.619-9.998 2.339a361 361 0 0 0-2.787 6.871c-1.66 7.831-2.174 15.033-1.509 21.395 11.976 22.226 14.682 41.273 7.221 50.956-5.006 6.5-14.014 8.399-26.045 5.493a.5.5 0 0 1-.248-.147zm18.672-72.751c-9.277 24.651-15.374 49.324-17.771 72.04 11.416 2.666 19.917.857 24.615-5.237 7.222-9.375 4.476-28.057-7.36-49.969a.4.4 0 0 1-.051-.18c-.546-5.068-.348-10.646.573-16.648zm11.496-32.924c-3.385 7.394-6.035 14.501-7.916 21.211.125-.296.245-.586.365-.888a.5.5 0 0 1 .575-.288c4.381 1.052 7.627.404 9.391-1.888 2.632-3.413 1.718-10.158-2.415-18.158z"></path><path d="M208.922 218.87a.495.495 0 0 1 .48-.813c6.651 1.603 11.598.599 14.292-2.905 4.133-5.374 2.536-16.111-4.285-28.737a.493.493 0 0 1 .202-.671.493.493 0 0 1 .671.202c7.11 13.176 8.642 24.04 4.195 29.814-2.958 3.836-8.253 4.966-15.313 3.262a.47.47 0 0 1-.248-.147z"></path><path d="M201.432 247.359a.495.495 0 0 1 .48-.813c9.102 2.191 15.875.807 19.581-4.006 5.658-7.346 3.493-21.999-5.795-39.192a.493.493 0 0 1 .202-.671.493.493 0 0 1 .671.201c9.615 17.811 11.702 32.49 5.704 40.27-3.963 5.151-11.091 6.655-20.601 4.363a.5.5 0 0 1-.248-.147z"></path><path d="M220.27 270.7a.48.48 0 0 1-.123-.283c-2.567-26.065.43-54.897 8.661-83.354a.49.49 0 0 1 .613-.333.49.49 0 0 1 .333.612c-8.197 28.346-11.182 57.043-8.633 82.988a.496.496 0 0 1-.445.542.5.5 0 0 1-.406-.16zM52.594 199.39c-19.313-35.738-23.69-66.258-11.769-81.739 7.963-10.335 22.314-13.35 41.516-8.718a.5.5 0 0 1 .276.178c8.941 11.638 22.913 20.283 40.415 25 .257.07.41.337.351.595a.485.485 0 0 1-.589.358c-11.629-2.8-20.282-1.021-25.03 5.141-7.223 9.375-4.476 28.057 7.354 49.963a.48.48 0 0 1 .023.421.46.46 0 0 1-.309.282c-21.365 6.611-39.309 9.608-51.908 8.669a.48.48 0 0 1-.33-.162zm29.35-89.54c-18.712-4.469-32.649-1.571-40.336 8.41-11.65 15.12-7.287 45.143 11.66 80.332 12.343.857 29.858-2.065 50.694-8.475-11.778-22.034-14.398-40.888-6.987-50.514 3.944-5.111 10.367-7.385 18.803-6.702-14.389-5.027-25.99-12.911-33.833-23.051"></path><path d="M44.99 114.06a.496.496 0 0 1-.017-.652.503.503 0 0 1 .7-.063c13.386 11.15 32.178 19.258 54.363 23.438a.495.495 0 0 1-.186.974c-22.35-4.211-41.303-12.398-54.814-23.648zM34.486 146.222a.48.48 0 0 1-.075-.553.48.48 0 0 1 .66-.219c14.648 7.303 34.822 11.228 58.337 11.364a.49.49 0 0 1 .491.501.49.49 0 0 1-.495.487c-23.668-.131-43.994-4.099-58.769-11.467a.4.4 0 0 1-.143-.107zM95.875 259.276c-17.005-18.601-32.123-39.187-43.354-59.979a.5.5 0 0 1 .476-.73c12.47.934 30.295-2.057 51.54-8.626a.486.486 0 0 1 .581.238c20.55 38.069 62.128 75.028 92.672 82.395.24.052.407.284.378.525-2.411 23.295-.828 43.527 4.593 58.496a.49.49 0 0 1-.1.498.5.5 0 0 1-.485.15c-32.65-7.874-73.072-36.634-106.3-72.979zM53.82 199.615c32.981 60.558 98.872 119.168 147.694 131.457-5.192-14.929-6.701-34.821-4.383-57.635-30.645-7.625-72.058-44.441-92.7-82.425-20.692 6.369-38.156 9.335-50.617 8.609z"></path><path d="M95.086 258.447c-.185-.227-.165-.539.05-.713 7.403-6.168 19.746-16.853 35.676-30.919a.49.49 0 0 1 .69.036.49.49 0 0 1-.037.702c-15.943 14.066-28.292 24.768-35.707 30.936a.49.49 0 0 1-.678-.048zM148.658 306.05a.46.46 0 0 1-.125-.372c.972-11.965 6.343-28.925 15.517-49.057a.506.506 0 0 1 .655-.249.5.5 0 0 1 .242.661c-9.133 20.027-14.47 36.877-15.436 48.724a.5.5 0 0 1-.859.299zM201.921 332.102a.5.5 0 0 1-.099-.17c-5.473-15.113-7.073-35.488-4.644-58.935a.48.48 0 0 1 .211-.352.46.46 0 0 1 .399-.071c11.629 2.8 20.282 1.021 25.03-5.141 4.899-6.357 5.207-16.992 1.218-30.011-4.791-4.807-7.729-11.637-8.629-20.138a.48.48 0 0 1 .349-.522.484.484 0 0 1 .58.238c3.782 7.009 6.643 13.694 8.552 19.88a24.7 24.7 0 0 0 6.879 4.8c.098.046.178.12.227.211 19.246 35.64 23.616 66.166 11.702 81.641-7.963 10.335-22.32 13.356-41.522 8.724a.47.47 0 0 1-.248-.148zm-3.815-58.437c-2.323 22.931-.745 42.862 4.558 57.69 18.667 4.443 32.581 1.533 40.243-8.426 11.663-15.143 7.284-45.196-11.703-80.429a26 26 0 0 1-5.761-3.762c3.576 12.617 3.038 22.963-1.842 29.303-4.93 6.397-13.739 8.34-25.489 5.63zm18.66-53.731c1.03 6.13 3.241 11.248 6.533 15.208-1.628-4.802-3.805-9.895-6.533-15.208"></path><path d="M238.796 327.784c-9.97-14.646-16.408-34.467-18.656-57.372a.503.503 0 0 1 .444-.542.503.503 0 0 1 .542.444c2.232 22.738 8.606 42.403 18.449 56.86a.497.497 0 0 1-.132.686.486.486 0 0 1-.635-.076z"></path><path d="M131.259 228.026c-10.599-11.593-20.018-24.423-27.02-37.382-10.793-19.991-14.152-37.423-9.224-47.834 2.418-5.108 6.83-8.406 12.747-9.55a.5.5 0 0 1 .207.004c23.463 5.591 50.258 5.76 77.486.498a.493.493 0 1 1 .205.967c-.913.178-1.731.496-2.419.945-4.29 2.824-3.707 10.596 1.526 20.294 7.929 14.691 23.953 28.95 35.722 31.78 4.387 1.058 7.639.405 9.398-1.894.508-.657.881-1.451 1.129-2.356a.5.5 0 0 1 .608-.363.505.505 0 0 1 .351.607c-7.227 26.781-8.995 53.516-5.12 77.32a.5.5 0 0 1-.015.207c-3.11 11.533-13.789 16-29.294 12.253-20.361-4.909-45.574-22.84-66.293-45.502zm-23.412-93.768c-5.626 1.115-9.641 4.141-11.935 8.988-4.797 10.121-1.441 27.228 9.199 46.941 20.55 38.068 62.128 75.028 92.672 82.394 15.085 3.634 25.054-.434 28.088-11.456-3.707-22.828-2.249-48.328 4.206-73.974-1.591 1.567-4.51 2.845-9.809 1.568-12.002-2.899-28.313-17.371-36.356-32.274-5.201-9.627-5.896-17.545-1.937-21.029-26.057 4.576-51.611 4.189-74.123-1.152z"></path><path d="M226.008 244.878a.5.5 0 0 1-.12-.242c-3.9-20.105-2.124-43.487 5.148-67.594a.494.494 0 0 1 .495-.35.48.48 0 0 1 .455.399c.494 2.558.493 4.799-.005 6.657-.645 2.502-1.462 5.682-2.007 8.058-1.003 4.413-1.621 7.898-1.629 7.927-1.542 8.765-1.887 12.362-2.359 17.976-.179 2.132-.574 7.855-.337 14.937.048 1.563.286 7.025 1.206 11.796a.49.49 0 0 1-.847.424zm5.324-65.345c-3.883 13.473-6.029 26.693-6.409 39.193.025-.431.059-.802.085-1.096.479-5.643.819-9.258 2.369-18.064.008-.029.64-3.561 1.638-7.98.545-2.388 1.363-5.58 2.014-8.087.312-1.157.413-2.483.297-3.96z"></path><path d="M220.018 188.566c-.143-.243-.148-.385-.095-.525a355 355 0 0 1 8.413-18.575 48 48 0 0 0-1.33-2.631.49.49 0 0 1-.01-.444c10.531-22.685 27.779-47.471 49.872-71.675a.49.49 0 0 1 .688-.04c.211.168.227.483.052.688-18.675 22.085-35.119 47.404-48.179 74.109 3.418 7.454 3.888 13.553 1.232 17-1.407 1.83-4.353 3.697-10.401 2.245a.47.47 0 0 1-.248-.147zm8.856-17.929a360 360 0 0 0-7.808 17.242c4.094.862 7.135.176 8.824-2.013 2.299-2.985 1.892-8.531-1.016-15.229m-.869-4.059q.472.891.902 1.755c9.549-19.412 20.875-38.094 33.537-55.315-14.749 18.281-26.498 36.513-34.439 53.56"></path><path d="M231.453 179.763a.51.51 0 0 1-.114-.472c8.308-29.252 24.042-58.493 45.516-84.564a.497.497 0 0 1 .695-.07.5.5 0 0 1 .069.696c-21.386 25.968-37.062 55.087-45.323 84.205a.487.487 0 0 1-.606.339.46.46 0 0 1-.23-.14z"></path><path d="M197.311 273.388a.47.47 0 0 1-.124-.384c2.526-24.419 9.329-51.107 19.76-77.616 1.906-8.949 5.279-18.708 10.059-28.996a.48.48 0 0 1 .433-.283.5.5 0 0 1 .449.257c4.786 8.863 5.809 16.199 2.795 20.109-1.376 1.789-4.22 3.619-9.998 2.339a358 358 0 0 0-2.787 6.871c-1.66 7.831-2.174 15.033-1.509 21.395 11.976 22.226 14.682 41.273 7.221 50.956-5.006 6.5-14.014 8.399-26.045 5.493a.5.5 0 0 1-.248-.147zm18.672-72.751c-9.277 24.65-15.374 49.324-17.771 72.04 11.416 2.666 19.917.857 24.615-5.237 7.222-9.375 4.476-28.057-7.361-49.969a.5.5 0 0 1-.051-.18c-.545-5.068-.347-10.646.574-16.648zm11.496-32.924c-3.385 7.394-6.035 14.501-7.916 21.211.125-.296.245-.586.365-.888a.5.5 0 0 1 .575-.288c4.381 1.052 7.626.404 9.391-1.888 2.632-3.413 1.718-10.158-2.415-18.158z"></path><path d="M208.924 218.872a.495.495 0 0 1 .48-.813c6.651 1.603 11.598.599 14.292-2.905 4.133-5.374 2.536-16.111-4.285-28.737a.493.493 0 0 1 .202-.671.493.493 0 0 1 .671.202c7.11 13.176 8.642 24.04 4.195 29.814-2.958 3.836-8.253 4.966-15.313 3.262a.47.47 0 0 1-.248-.147z"></path><path d="M201.436 247.36a.49.49 0 0 1-.116-.449.497.497 0 0 1 .596-.364c9.102 2.191 15.875.807 19.581-4.006 5.658-7.346 3.493-21.999-5.795-39.192a.493.493 0 0 1 .202-.671.493.493 0 0 1 .671.201c9.614 17.811 11.702 32.49 5.704 40.27-3.963 5.151-11.091 6.655-20.601 4.363a.5.5 0 0 1-.248-.147z"></path><path d="M226.81 250.672a.47.47 0 0 1-.119-.242c-4.088-21.449-2.482-46.045 4.651-71.134a.497.497 0 0 1 .607-.339.49.49 0 0 1 .339.606c-7.085 24.943-8.69 49.379-4.631 70.685a.493.493 0 0 1-.387.58.5.5 0 0 1-.454-.15z"></path><path d="M201.923 332.103a.5.5 0 0 1-.099-.17c-5.474-15.113-7.073-35.488-4.644-58.935a.48.48 0 0 1 .211-.352.46.46 0 0 1 .399-.071c11.629 2.8 20.282 1.021 25.03-5.141 4.899-6.357 5.207-16.992 1.218-30.011-4.791-4.807-7.729-11.637-8.629-20.138a.48.48 0 0 1 .349-.522.484.484 0 0 1 .58.238c3.782 7.009 6.643 13.694 8.552 19.88a24.7 24.7 0 0 0 6.879 4.8c.098.046.178.12.227.211 19.246 35.64 23.616 66.166 11.702 81.641-7.963 10.335-22.32 13.356-41.522 8.723a.47.47 0 0 1-.248-.147zm-3.815-58.437c-2.324 22.931-.745 42.862 4.558 57.69 18.667 4.443 32.581 1.533 40.243-8.426 11.663-15.143 7.283-45.196-11.703-80.429a26 26 0 0 1-5.761-3.762c3.576 12.617 3.038 22.963-1.842 29.303-4.93 6.397-13.739 8.34-25.49 5.63zm18.66-53.731c1.03 6.13 3.241 11.248 6.533 15.208-1.628-4.802-3.805-9.895-6.533-15.208"></path><path d="M246.371 292.623c-9.641-10.545-16.414-25.037-19.679-42.192a.484.484 0 0 1 .393-.574.48.48 0 0 1 .573.392c3.552 18.658 11.274 34.114 22.351 44.694.174.191.208.5.015.698a.5.5 0 0 1-.698.017 66 66 0 0 1-2.962-3.029zM226.008 244.878a.5.5 0 0 1-.12-.242c-3.9-20.105-2.124-43.487 5.148-67.594a.494.494 0 0 1 .495-.35.48.48 0 0 1 .455.399c.494 2.558.493 4.799-.005 6.657-.645 2.502-1.462 5.682-2.007 8.058-1.003 4.413-1.621 7.898-1.629 7.927-1.542 8.765-1.887 12.362-2.359 17.976-.179 2.132-.574 7.855-.337 14.937.048 1.563.286 7.025 1.206 11.796a.49.49 0 0 1-.847.424zm5.324-65.345c-3.883 13.473-6.029 26.693-6.409 39.193.025-.431.059-.802.085-1.096.479-5.643.819-9.258 2.369-18.064.008-.029.64-3.561 1.638-7.98.545-2.388 1.363-5.58 2.014-8.087.312-1.157.413-2.483.297-3.96z"></path><path d="M226.01 261.473a.44.44 0 0 1-.119-.253c-3.905-23.936-2.119-50.812 5.137-77.71a.5.5 0 0 1 .614-.369.505.505 0 0 1 .351.607c-2.137 7.928-3.269 13.885-3.646 16.085-1.605 9.093-1.915 12.828-2.355 17.993-.102 1.202-.313 4.835-.343 6.424-.064 3.001-.105 4.814.011 8.532.205 6.07.955 10.283 1.206 11.672 1.262 6.495 1.256 12.147-.008 16.821a.495.495 0 0 1-.837.211zm-1.15-24.984c.047 7.493.574 14.819 1.591 21.888.623-3.975.435-8.589-.568-13.748l.489-.097-.489.085c-.199-1.097-.713-3.975-1.023-8.128"></path><path d="M220.018 188.566c-.143-.243-.148-.385-.095-.525a355 355 0 0 1 8.413-18.575 48 48 0 0 0-1.33-2.631.49.49 0 0 1-.01-.444c10.531-22.685 27.779-47.471 49.872-71.675a.49.49 0 0 1 .688-.04c.211.168.227.483.052.688-18.675 22.085-35.119 47.404-48.179 74.109 3.418 7.454 3.888 13.553 1.232 17-1.407 1.83-4.353 3.697-10.401 2.245a.47.47 0 0 1-.248-.147zm8.856-17.929a360 360 0 0 0-7.808 17.242c4.094.862 7.135.176 8.824-2.013 2.299-2.985 1.892-8.531-1.016-15.229m-.869-4.059q.472.891.902 1.755c9.549-19.412 20.875-38.094 33.537-55.315-14.749 18.281-26.498 36.513-34.439 53.56"></path><path d="M231.453 179.763a.51.51 0 0 1-.114-.472c8.308-29.252 24.042-58.493 45.516-84.564a.497.497 0 0 1 .695-.07.5.5 0 0 1 .069.696c-21.386 25.968-37.062 55.087-45.323 84.205a.487.487 0 0 1-.606.339.46.46 0 0 1-.23-.14z"></path><path d="M197.311 273.388a.47.47 0 0 1-.124-.384c2.526-24.419 9.329-51.107 19.76-77.616 1.906-8.949 5.279-18.708 10.059-28.996a.48.48 0 0 1 .433-.283.5.5 0 0 1 .449.257c4.786 8.863 5.809 16.199 2.795 20.109-1.376 1.789-4.22 3.619-9.998 2.339a358 358 0 0 0-2.787 6.871c-1.66 7.831-2.174 15.033-1.509 21.395 11.976 22.226 14.682 41.273 7.221 50.956-5.006 6.5-14.014 8.399-26.045 5.493a.5.5 0 0 1-.248-.147zm18.672-72.751c-9.277 24.65-15.374 49.324-17.771 72.04 11.416 2.666 19.917.857 24.615-5.237 7.222-9.375 4.476-28.057-7.361-49.969a.5.5 0 0 1-.051-.18c-.545-5.068-.347-10.646.574-16.648zm11.496-32.924c-3.385 7.394-6.035 14.501-7.916 21.211.125-.296.245-.586.365-.888a.5.5 0 0 1 .575-.288c4.381 1.052 7.626.404 9.391-1.888 2.632-3.413 1.718-10.158-2.415-18.158z"></path><path d="M208.924 218.872a.495.495 0 0 1 .48-.813c6.651 1.603 11.598.599 14.292-2.905 4.133-5.374 2.536-16.111-4.285-28.737a.493.493 0 0 1 .202-.671.493.493 0 0 1 .671.202c7.11 13.176 8.642 24.04 4.195 29.814-2.958 3.836-8.253 4.966-15.313 3.262a.47.47 0 0 1-.248-.147z"></path><path d="M201.436 247.36a.49.49 0 0 1-.116-.449.497.497 0 0 1 .596-.364c9.102 2.191 15.875.807 19.581-4.006 5.658-7.346 3.493-21.999-5.795-39.192a.493.493 0 0 1 .202-.671.493.493 0 0 1 .671.201c9.614 17.811 11.702 32.49 5.704 40.27-3.963 5.151-11.091 6.655-20.601 4.363a.5.5 0 0 1-.248-.147z"></path><path d="M226.81 250.672a.47.47 0 0 1-.119-.242c-4.088-21.449-2.482-46.045 4.651-71.134a.497.497 0 0 1 .607-.339.49.49 0 0 1 .339.606c-7.085 24.943-8.69 49.379-4.631 70.685a.493.493 0 0 1-.387.58.5.5 0 0 1-.454-.15z"></path><path d="M201.923 332.103a.5.5 0 0 1-.099-.17c-5.474-15.113-7.073-35.488-4.644-58.935a.48.48 0 0 1 .211-.352.46.46 0 0 1 .399-.071c11.629 2.8 20.282 1.021 25.03-5.141 4.899-6.357 5.207-16.992 1.218-30.011-4.791-4.807-7.729-11.637-8.629-20.138a.48.48 0 0 1 .349-.522.484.484 0 0 1 .58.238c3.782 7.009 6.643 13.694 8.552 19.88a24.7 24.7 0 0 0 6.879 4.8c.098.046.178.12.227.211 19.246 35.64 23.616 66.166 11.702 81.641-7.963 10.335-22.32 13.356-41.522 8.723a.47.47 0 0 1-.248-.147zm-3.815-58.437c-2.324 22.931-.745 42.862 4.558 57.69 18.667 4.443 32.581 1.533 40.243-8.426 11.663-15.143 7.283-45.196-11.703-80.429a26 26 0 0 1-5.761-3.762c3.576 12.617 3.038 22.963-1.842 29.303-4.93 6.397-13.739 8.34-25.49 5.63zm18.66-53.731c1.03 6.13 3.241 11.248 6.533 15.208-1.628-4.802-3.805-9.895-6.533-15.208"></path><path d="M246.371 292.623c-9.641-10.545-16.414-25.037-19.679-42.192a.484.484 0 0 1 .393-.574.48.48 0 0 1 .573.392c3.552 18.658 11.274 34.114 22.351 44.694.174.191.208.5.015.698a.5.5 0 0 1-.698.017 66 66 0 0 1-2.962-3.029z"></path><path d="M226.01 261.473a.44.44 0 0 1-.119-.253c-3.905-23.936-2.119-50.812 5.137-77.71a.5.5 0 0 1 .614-.369.505.505 0 0 1 .351.607c-2.137 7.928-3.269 13.885-3.646 16.085-1.605 9.093-1.915 12.828-2.355 17.993-.102 1.202-.313 4.835-.343 6.424-.064 3.001-.105 4.814.011 8.532.205 6.07.955 10.283 1.206 11.672 1.262 6.495 1.256 12.147-.008 16.821a.495.495 0 0 1-.837.211zm-1.15-24.984c.047 7.493.574 14.819 1.591 21.888.623-3.975.435-8.589-.568-13.748l.489-.097-.489.085c-.199-1.097-.713-3.975-1.023-8.128"></path><path d="M124.085 135.311a.47.47 0 0 1-.109-.466.495.495 0 0 1 .601-.346c19.651 5.297 42.922 5.204 67.322-.267a.5.5 0 0 1 .236-.002c12.081 3.258 27.787 17.367 35.748 32.118 2.107 3.901 3.487 7.504 4.111 10.725.014.077.01.16-.011.236-7.224 23.961-8.992 47.166-5.121 67.127a.49.49 0 0 1-.387.58.49.49 0 0 1-.58-.386c-1.583-8.159-5.091-17.296-10.422-27.177-20.01-37.057-60.898-73.844-91.146-82.001a.5.5 0 0 1-.236-.147zm67.905-.088c-20.929 4.674-41.036 5.417-58.748 2.228 29.494 12.014 64.489 45.091 83.098 79.538 3.541 6.573 6.298 12.821 8.21 18.677-1.924-17.918.269-37.947 6.452-58.501-.611-3.096-1.956-6.573-3.986-10.33-7.694-14.248-23.381-28.397-35.02-31.606z"></path><path d="M220.012 188.565c-.143-.243-.148-.385-.094-.525a354 354 0 0 1 8.412-18.575 48 48 0 0 0-1.33-2.631.49.49 0 0 1-.01-.444c10.531-22.685 27.779-47.471 49.872-71.675a.49.49 0 0 1 .688-.04.48.48 0 0 1 .052.688c-18.675 22.085-35.119 47.404-48.179 74.109 3.418 7.454 3.888 13.553 1.232 17-1.407 1.83-4.353 3.697-10.401 2.245a.47.47 0 0 1-.248-.147zm8.856-17.929a360 360 0 0 0-7.808 17.242c4.094.862 7.135.176 8.824-2.013 2.299-2.984 1.893-8.531-1.016-15.229m-.869-4.059q.473.891.902 1.755c9.55-19.412 20.875-38.094 33.537-55.315-14.749 18.281-26.498 36.513-34.439 53.56"></path><path d="M191.038 134.904a.5.5 0 0 1-.133-.343.51.51 0 0 1 .389-.48c28.813-6.303 58.436-19.943 85.644-39.444a.496.496 0 0 1 .653.739c-22.025 24.13-39.216 48.83-49.708 71.434a.48.48 0 0 1-.432.282.5.5 0 0 1-.45-.256c-7.928-14.691-23.959-28.944-35.722-31.78a.46.46 0 0 1-.247-.147zm82.87-36.92c-25.713 17.806-53.422 30.42-80.504 36.635 11.531 3.771 26.234 17.043 34.006 30.881 10.09-21.422 26.103-44.672 46.498-67.515"></path><path d="M216.82 152.677a.49.49 0 0 1 .019-.685c15.73-15.376 36.502-35.193 60.051-57.31a.5.5 0 0 1 .697.02.494.494 0 0 1-.02.696c-23.549 22.117-44.309 41.923-60.038 57.299a.495.495 0 0 1-.698-.008z"></path><path d="M203.893 141.187a.487.487 0 0 1 .166-.785c22.287-9.503 47.485-25.32 72.855-45.742.209-.169.508-.102.695.078a.495.495 0 0 1-.079.694c-25.449 20.472-50.72 36.334-73.093 45.88a.49.49 0 0 1-.562-.12zM197.307 273.386a.47.47 0 0 1-.124-.384c2.526-24.419 9.329-51.107 19.76-77.616 1.906-8.949 5.279-18.708 10.059-28.996a.48.48 0 0 1 .433-.283.5.5 0 0 1 .449.257c4.786 8.863 5.809 16.199 2.795 20.109-1.376 1.789-4.22 3.619-9.998 2.339a361 361 0 0 0-2.787 6.871c-1.66 7.831-2.174 15.033-1.509 21.395 11.976 22.226 14.682 41.273 7.221 50.956-5.006 6.5-14.014 8.399-26.045 5.493a.5.5 0 0 1-.248-.147zm18.672-72.751c-9.277 24.651-15.374 49.324-17.771 72.04 11.416 2.666 19.917.857 24.615-5.237 7.222-9.375 4.476-28.057-7.36-49.969a.44.44 0 0 1-.051-.18c-.546-5.068-.348-10.646.573-16.648zm11.496-32.924c-3.385 7.394-6.035 14.501-7.916 21.211.125-.296.245-.586.365-.888a.5.5 0 0 1 .575-.288c4.381 1.052 7.627.404 9.391-1.888 2.632-3.413 1.718-10.158-2.415-18.158z"></path><path d="M208.92 218.87a.496.496 0 0 1 .481-.813c6.65 1.603 11.597.599 14.291-2.905 4.133-5.374 2.536-16.111-4.285-28.737a.493.493 0 0 1 .202-.671.493.493 0 0 1 .671.202c7.11 13.176 8.642 24.04 4.195 29.814-2.958 3.836-8.253 4.966-15.313 3.262a.47.47 0 0 1-.248-.147z"></path><path d="M201.43 247.359a.495.495 0 0 1 .48-.813c9.102 2.191 15.875.807 19.581-4.006 5.658-7.346 3.493-21.999-5.795-39.192a.493.493 0 0 1 .202-.671.493.493 0 0 1 .671.201c9.615 17.811 11.702 32.49 5.704 40.27-3.963 5.151-11.091 6.655-20.601 4.363a.5.5 0 0 1-.248-.147z"></path><path d="M122.544 134.917a.5.5 0 0 1-.115-.461.495.495 0 0 1 .595-.352c.655.16 1.309.331 1.975.514 19.552 4.879 42.425 4.696 66.305-.526a.6.6 0 0 1 .219.004c12.002 2.887 28.307 17.366 36.356 32.275.07.139.081.299.009.443-8.978 19.331-12.957 36.75-11.501 50.366a.496.496 0 0 1-.349.522.51.51 0 0 1-.581-.238c-20.119-37.252-60.372-73.454-90.714-81.888a77 77 0 0 1-1.975-.513.5.5 0 0 1-.236-.147zm68.852.155c-20.829 4.548-40.905 5.274-58.71 2.17 28.804 11.594 63.662 44.026 82.524 77.71-.816-13.375 3.198-30.012 11.676-48.342-7.945-14.573-23.8-28.659-35.49-31.538"></path><path d="M165.583 138.6a.49.49 0 0 1-.116-.449.497.497 0 0 1 .596-.364c17.893 4.314 42.213 25.913 54.224 48.153a.494.494 0 1 1-.873.469c-11.891-22.021-35.931-43.4-53.583-47.662a.48.48 0 0 1-.248-.147M142.619 138.422a.494.494 0 0 1 .48-.812c24.239 5.844 57.206 35.118 73.478 65.263a.493.493 0 0 1-.202.671.504.504 0 0 1-.671-.202c-16.157-29.932-48.839-58.981-72.843-64.767a.47.47 0 0 1-.248-.147z"></path><path d="M189.067 180.782a.497.497 0 0 1-.006-.662c4.664-5.202 14.267-14.933 27.776-28.131a.487.487 0 0 1 .697.007c.18.209.184.511-.008.697-13.49 13.182-23.081 22.901-27.726 28.087a.49.49 0 0 1-.699.039zM155.716 151.137a.5.5 0 0 1-.129-.402.485.485 0 0 1 .557-.419c12.295 1.647 28.863-1.778 47.926-9.916a.49.49 0 0 1 .644.259.487.487 0 0 1-.259.645c-19.226 8.208-35.973 11.661-48.444 9.982a.5.5 0 0 1-.3-.155zM201.921 332.103a.5.5 0 0 1-.099-.17c-5.473-15.113-7.073-35.488-4.644-58.935a.48.48 0 0 1 .211-.352.46.46 0 0 1 .399-.071c11.629 2.8 20.282 1.021 25.03-5.141 4.899-6.357 5.207-16.992 1.218-30.011-4.791-4.807-7.729-11.637-8.629-20.138a.48.48 0 0 1 .349-.522.484.484 0 0 1 .58.238c3.782 7.009 6.643 13.694 8.552 19.88a24.7 24.7 0 0 0 6.879 4.8c.098.046.178.12.227.211 19.246 35.64 23.616 66.166 11.702 81.641-7.963 10.335-22.32 13.356-41.522 8.723a.47.47 0 0 1-.248-.147zm-3.815-58.437c-2.323 22.931-.745 42.862 4.558 57.69 18.667 4.443 32.581 1.533 40.243-8.426 11.663-15.143 7.284-45.196-11.703-80.429a26 26 0 0 1-5.761-3.762c3.576 12.617 3.038 22.963-1.842 29.303-4.93 6.397-13.739 8.34-25.489 5.63zm18.66-53.731c1.03 6.13 3.241 11.248 6.533 15.208-1.628-4.802-3.805-9.895-6.533-15.208"></path><path d="M85.012 113.491a57 57 0 0 1-3.176-3.783.49.49 0 0 1-.022-.569.5.5 0 0 1 .53-.213c21.653 5.221 46.724 19.628 70.845 39.338 23.35 15.448 47.301 40.53 61.862 66.39 6.29 8.935 11.998 18.064 16.942 27.224a.48.48 0 0 1-.079.57.49.49 0 0 1-.573.104c-9.106-4.313-14.614-13.025-15.933-25.192-.393-.739-.803-1.473-1.213-2.207-17.293-24.561-39.021-47.659-61.568-66.092-10.369-6.847-20.612-11.785-29.842-14.005-15.773-4.249-28.718-11.661-37.779-21.571zm-1.503-3.254c8.961 11.065 22.597 19.305 39.526 23.866 7.2 1.734 15.013 5.103 23.016 9.734-21.437-16.551-43.289-28.64-62.542-33.6M216.56 218.558c1.43 10.493 6.169 18.178 13.796 22.384-4.125-7.521-8.754-15.011-13.796-22.384m-28.006-38.336c-8.294-9.072-17.308-17.384-26.435-24.383 16.515 14.535 32.304 31.385 45.936 49.268-5.7-8.638-12.327-17.051-19.489-24.884z"></path><path d="M185.933 184.995c-.389-.425-.439-.889 3.129-4.875a.5.5 0 0 1 .699-.039.5.5 0 0 1 .04.699c-1.264 1.404-2.002 2.306-2.43 2.878.341-.222.799-.538 1.398-.984a.5.5 0 0 1 .694.101.497.497 0 0 1-.103.693c-2.477 1.835-3.033 1.958-3.421 1.533zM139.506 143.612c-2.045-2.238-3.55-4.912-4.486-8.016a.49.49 0 0 1 .329-.618.49.49 0 0 1 .618.329c2.536 8.396 9.516 13.578 20.177 14.999a.485.485 0 0 1 .419.557.485.485 0 0 1-.557.418c-7.171-.957-12.741-3.57-16.499-7.681z"></path><path d="M124.085 135.311a.47.47 0 0 1-.109-.466.495.495 0 0 1 .601-.346c19.651 5.297 42.922 5.204 67.322-.267a.5.5 0 0 1 .236-.002c12.081 3.258 27.787 17.367 35.748 32.118 2.107 3.901 3.487 7.504 4.111 10.725.014.077.01.16-.011.236-7.224 23.961-8.992 47.166-5.121 67.127a.49.49 0 0 1-.387.58.49.49 0 0 1-.58-.386c-1.583-8.159-5.091-17.296-10.422-27.177-20.01-37.057-60.898-73.844-91.146-82.001a.5.5 0 0 1-.236-.147zm67.905-.088c-20.929 4.674-41.036 5.417-58.748 2.228 29.494 12.014 64.489 45.091 83.098 79.538 3.541 6.573 6.298 12.821 8.21 18.677-1.924-17.918.269-37.947 6.452-58.501-.611-3.096-1.956-6.573-3.986-10.33-7.694-14.248-23.381-28.397-35.02-31.606z"></path><path d="M122.548 134.918a.5.5 0 0 1-.116-.461.49.49 0 0 1 .596-.352c.509.123 1.029.259 1.549.394.251.065.561.144.853.216l.369.093a.496.496 0 0 1-.239.965 131 131 0 0 1-2.777-.709.5.5 0 0 1-.235-.146"></path><path d="M122.542 134.915a.5.5 0 0 1-.115-.461.495.495 0 0 1 .595-.352c.655.16 1.31.331 1.975.514 19.552 4.879 42.425 4.697 66.305-.526a.6.6 0 0 1 .219.004c12.002 2.888 28.307 17.366 36.356 32.275a.49.49 0 0 1 .009.444c-8.978 19.33-12.957 36.749-11.501 50.365a.495.495 0 0 1-.349.522.51.51 0 0 1-.581-.238c-20.119-37.252-60.372-73.454-90.714-81.888a77 77 0 0 1-1.975-.513.5.5 0 0 1-.236-.147zm68.852.155c-20.829 4.548-40.905 5.274-58.71 2.17 28.804 11.594 63.662 44.026 82.524 77.71-.816-13.375 3.199-30.012 11.676-48.342-7.945-14.573-23.8-28.659-35.49-31.538"></path><path d="M85.012 113.492a57 57 0 0 1-3.176-3.783.49.49 0 0 1-.022-.569.5.5 0 0 1 .53-.213c21.653 5.221 46.724 19.628 70.845 39.338 23.35 15.448 47.301 40.53 61.862 66.389 6.29 8.936 11.998 18.065 16.942 27.225a.48.48 0 0 1-.079.57.49.49 0 0 1-.573.104c-9.106-4.313-14.614-13.025-15.933-25.192-.393-.739-.803-1.473-1.213-2.207-17.293-24.561-39.021-47.659-61.568-66.092-10.369-6.847-20.612-11.785-29.842-14.005-15.773-4.249-28.718-11.661-37.779-21.571zm-1.503-3.254c8.961 11.065 22.597 19.305 39.526 23.866 7.2 1.734 15.013 5.103 23.016 9.734-21.437-16.551-43.289-28.64-62.542-33.6M216.56 218.559c1.43 10.493 6.169 18.178 13.796 22.384-4.125-7.521-8.754-15.011-13.796-22.384m-28.006-38.336c-8.294-9.072-17.308-17.384-26.435-24.383 16.515 14.535 32.304 31.385 45.936 49.268-5.7-8.638-12.327-17.051-19.489-24.884z"></path><path d="M122.548 134.918a.5.5 0 0 1-.116-.461.49.49 0 0 1 .596-.352c.509.123 1.029.259 1.549.394.251.065.561.144.853.216l.369.093a.496.496 0 0 1-.239.965 131 131 0 0 1-2.777-.709.5.5 0 0 1-.235-.146"></path><path d="M124.084 135.312a.49.49 0 0 1-.115-.461.487.487 0 0 1 .595-.352l.403.107c.281.072.579.15.813.208 19.372 4.67 42.029 4.424 65.515-.721a.6.6 0 0 1 .219.004q.308.075.608.157a.497.497 0 0 1-.014.963c-24.573 5.505-48.015 5.597-67.795.259a.5.5 0 0 1-.236-.147z"></path><path d="M191.036 134.901a.5.5 0 0 1-.133-.343.51.51 0 0 1 .389-.479c28.813-6.304 58.436-19.944 85.644-39.445a.496.496 0 0 1 .653.739c-22.025 24.13-39.216 48.83-49.708 71.434a.48.48 0 0 1-.432.282.5.5 0 0 1-.45-.256c-7.928-14.691-23.959-28.944-35.722-31.78a.46.46 0 0 1-.247-.147zm82.87-36.92c-25.713 17.806-53.422 30.42-80.504 36.635 11.531 3.771 26.234 17.043 34.006 30.881 10.09-21.422 26.103-44.672 46.498-67.515"></path><path d="M122.542 134.915a.5.5 0 0 1-.115-.461.495.495 0 0 1 .595-.352c.655.16 1.31.331 1.975.514 19.552 4.879 42.425 4.697 66.305-.526a.6.6 0 0 1 .219.004c12.002 2.888 28.307 17.366 36.356 32.275a.49.49 0 0 1 .009.444c-8.978 19.33-12.957 36.749-11.501 50.365a.495.495 0 0 1-.349.522.51.51 0 0 1-.581-.238c-20.119-37.252-60.372-73.454-90.714-81.888a77 77 0 0 1-1.975-.513.5.5 0 0 1-.236-.147zm68.852.155c-20.829 4.548-40.905 5.274-58.71 2.17 28.804 11.594 63.662 44.026 82.524 77.71-.816-13.375 3.199-30.012 11.676-48.342-7.945-14.573-23.8-28.659-35.49-31.538"></path><path d="M165.581 138.599a.495.495 0 0 1 .48-.813c17.893 4.314 42.213 25.913 54.224 48.153.131.242.04.54-.202.671a.503.503 0 0 1-.671-.202c-11.89-22.021-35.931-43.4-53.583-47.662a.48.48 0 0 1-.248-.147M142.617 138.422a.495.495 0 0 1 .481-.812c24.238 5.844 57.205 35.118 73.477 65.263a.493.493 0 0 1-.202.671.5.5 0 0 1-.67-.202c-16.158-29.932-48.839-58.981-72.844-64.767a.47.47 0 0 1-.248-.147z"></path><path d="M85.012 113.491a57 57 0 0 1-3.176-3.783.49.49 0 0 1-.022-.569.5.5 0 0 1 .53-.213c21.653 5.221 46.724 19.628 70.845 39.338 23.35 15.448 47.301 40.53 61.862 66.39 6.29 8.935 11.998 18.064 16.942 27.224a.48.48 0 0 1-.079.57.49.49 0 0 1-.573.104c-9.106-4.313-14.614-13.025-15.933-25.192-.393-.739-.803-1.473-1.213-2.207-17.293-24.561-39.021-47.659-61.568-66.092-10.369-6.847-20.612-11.785-29.842-14.005-15.773-4.249-28.718-11.661-37.779-21.571zm-1.503-3.254c8.961 11.065 22.597 19.305 39.526 23.866 7.2 1.734 15.013 5.103 23.016 9.734-21.437-16.551-43.289-28.64-62.542-33.6M216.56 218.558c1.43 10.493 6.169 18.178 13.796 22.384-4.125-7.521-8.754-15.011-13.796-22.384m-28.006-38.336c-8.294-9.072-17.308-17.384-26.435-24.383 16.515 14.535 32.304 31.385 45.936 49.268-5.7-8.638-12.327-17.051-19.489-24.884z"></path><path d="M124.084 135.312a.49.49 0 0 1-.115-.461.487.487 0 0 1 .595-.352l.403.107c.281.072.579.15.813.208 19.372 4.67 42.029 4.424 65.515-.721a.6.6 0 0 1 .219.004q.308.075.608.157a.497.497 0 0 1-.014.963c-24.573 5.505-48.015 5.597-67.795.259a.5.5 0 0 1-.236-.147z"></path><path d="M123.025 135.032a.51.51 0 0 1-.125-.496c.082-.245.301-.401.559-.342.251.065.503.129.753.205l.363.099c30.995 8.356 71.293 44.596 91.763 82.49 5.385 9.978 8.93 19.217 10.516 27.453q.218 1.056.318 1.474a.494.494 0 0 1-.947.278c-1.284-3.907-2.974-7.736-6.053-13.668-3.547-6.839-8.526-14.427-8.57-14.5-2.509-3.76-6.225-9.063-9.249-13.201-1.298-1.766-3.021-3.936-4.543-5.848-.61-.766-1.198-1.496-1.724-2.17-.05-.055-5.206-6.487-12.247-14.103-15.23-16.411-27.76-26.227-31.883-29.45a188 188 0 0 0-16.696-11.699 108 108 0 0 0-6.184-3.568c-2.835-1.504-4.156-2.107-5.868-2.816a.5.5 0 0 1-.189-.132zm65.668 45.44c-18.374-20.099-40.353-36.586-59.145-43.37a110 110 0 0 1 6.241 3.607c2.914 1.838 8.975 5.643 16.787 11.762 4.129 3.24 16.71 13.089 31.991 29.555 7.003 7.549 12.248 14.103 12.298 14.158.526.674 1.114 1.404 1.724 2.17 1.527 1.919 3.262 4.101 4.571 5.88 3.08 4.21 6.718 9.404 9.271 13.236.045.062 5.089 7.783 8.625 14.598 1.485 2.863 2.649 5.238 3.605 7.374-1.882-6.777-4.961-14.145-9.196-21.984-6.881-12.741-16.229-25.455-26.772-36.986"></path><path d="M197.309 273.386a.47.47 0 0 1-.124-.384c2.526-24.419 9.329-51.107 19.76-77.616 1.906-8.949 5.279-18.708 10.059-28.996a.48.48 0 0 1 .433-.283.5.5 0 0 1 .449.257c4.786 8.863 5.809 16.199 2.795 20.109-1.376 1.789-4.22 3.619-9.998 2.339a361 361 0 0 0-2.787 6.871c-1.66 7.831-2.174 15.033-1.509 21.395 11.976 22.226 14.682 41.273 7.221 50.956-5.006 6.5-14.014 8.399-26.045 5.493a.5.5 0 0 1-.248-.147zm18.672-72.751c-9.277 24.651-15.374 49.324-17.771 72.04 11.416 2.666 19.917.857 24.615-5.237 7.222-9.375 4.476-28.057-7.36-49.969a.4.4 0 0 1-.051-.18c-.546-5.068-.348-10.646.573-16.648zm11.496-32.924c-3.385 7.394-6.035 14.501-7.916 21.211.125-.296.245-.586.365-.888a.5.5 0 0 1 .575-.288c4.381 1.052 7.627.404 9.391-1.888 2.632-3.413 1.718-10.158-2.415-18.158z"></path><path d="M122.546 134.916a.5.5 0 0 1-.115-.461.495.495 0 0 1 .595-.352c.655.16 1.309.331 1.975.514 19.552 4.879 42.425 4.697 66.305-.526a.6.6 0 0 1 .219.004c12.002 2.887 28.307 17.366 36.356 32.275.07.139.081.299.009.443-8.978 19.331-12.957 36.75-11.501 50.366a.496.496 0 0 1-.349.522.51.51 0 0 1-.581-.238c-20.119-37.252-60.372-73.454-90.714-81.888a76 76 0 0 1-1.975-.513.5.5 0 0 1-.236-.147zm68.852.155c-20.829 4.548-40.905 5.274-58.71 2.17 28.804 11.594 63.662 44.026 82.524 77.71-.816-13.375 3.198-30.012 11.676-48.342-7.945-14.573-23.8-28.659-35.49-31.538"></path><path d="M189.069 180.781a.497.497 0 0 1-.006-.662c4.664-5.202 14.267-14.933 27.776-28.131a.487.487 0 0 1 .697.007c.18.209.184.511-.008.697-13.49 13.182-23.081 22.901-27.726 28.087a.49.49 0 0 1-.733.002M155.718 151.136a.5.5 0 0 1-.129-.402.485.485 0 0 1 .557-.419c12.295 1.647 28.863-1.778 47.926-9.916a.49.49 0 0 1 .644.259.487.487 0 0 1-.259.645c-19.226 8.208-35.973 11.661-48.444 9.982a.5.5 0 0 1-.3-.155zM201.921 332.102a.5.5 0 0 1-.099-.17c-5.473-15.113-7.073-35.488-4.644-58.935a.48.48 0 0 1 .211-.352.46.46 0 0 1 .399-.071c11.629 2.8 20.282 1.021 25.03-5.141 4.899-6.357 5.207-16.992 1.218-30.011-4.791-4.807-7.729-11.637-8.629-20.138a.48.48 0 0 1 .349-.522.484.484 0 0 1 .58.238c3.782 7.009 6.643 13.694 8.552 19.88a24.7 24.7 0 0 0 6.879 4.8c.098.046.178.12.227.211 19.246 35.64 23.616 66.166 11.702 81.641-7.963 10.335-22.32 13.356-41.522 8.724a.47.47 0 0 1-.248-.148zm-3.815-58.437c-2.323 22.931-.745 42.862 4.558 57.69 18.667 4.443 32.581 1.533 40.243-8.426 11.663-15.143 7.284-45.196-11.703-80.429a26 26 0 0 1-5.761-3.762c3.576 12.617 3.038 22.963-1.842 29.303-4.93 6.397-13.739 8.34-25.489 5.63zm18.66-53.731c1.03 6.13 3.241 11.248 6.533 15.208-1.628-4.802-3.805-9.895-6.533-15.208"></path><path d="M196.229 296.415a.49.49 0 0 1-.116-.448.496.496 0 0 1 .596-.364c14.131 3.408 24.659 1.239 30.443-6.266 8.781-11.399 5.446-34.08-8.899-60.669a.493.493 0 0 1 .202-.671.49.49 0 0 1 .67.202c14.548 26.946 17.841 50.027 8.816 61.74-6.035 7.838-16.917 10.127-31.453 6.624a.5.5 0 0 1-.247-.147z"></path><path d="M85.014 113.491a57 57 0 0 1-3.176-3.783.49.49 0 0 1-.022-.569.5.5 0 0 1 .53-.213c21.653 5.221 46.724 19.628 70.845 39.338 23.35 15.448 47.301 40.53 61.862 66.39 6.29 8.935 11.998 18.064 16.942 27.224a.48.48 0 0 1-.079.57.49.49 0 0 1-.573.104c-9.106-4.313-14.614-13.025-15.933-25.192-.393-.739-.803-1.473-1.213-2.207-17.293-24.561-39.021-47.659-61.568-66.092-10.369-6.847-20.612-11.785-29.842-14.005-15.773-4.249-28.718-11.661-37.779-21.571zm-1.503-3.254c8.961 11.065 22.597 19.305 39.526 23.866 7.2 1.734 15.012 5.103 23.016 9.734-21.438-16.551-43.29-28.64-62.542-33.6m133.051 108.321c1.43 10.493 6.169 18.178 13.796 22.384-4.125-7.521-8.754-15.011-13.796-22.384m-28.006-38.336c-8.294-9.072-17.308-17.384-26.435-24.383 16.514 14.535 32.304 31.385 45.936 49.268-5.7-8.638-12.327-17.051-19.489-24.884z"></path><path d="M105.63 128.623a.49.49 0 0 1-.116-.449.496.496 0 0 1 .596-.363c37.27 8.99 87.974 54.024 113.01 100.392.131.243.04.54-.202.671a.503.503 0 0 1-.671-.201c-24.921-46.157-75.334-90.97-112.37-99.903a.46.46 0 0 1-.247-.147"></path><path d="M185.935 184.995c-.389-.425-.439-.889 3.129-4.875a.5.5 0 0 1 .699-.039.5.5 0 0 1 .04.699c-1.264 1.404-2.002 2.306-2.43 2.878.341-.222.799-.538 1.398-.984a.497.497 0 0 1 .693.101.496.496 0 0 1-.102.693c-2.477 1.835-3.033 1.958-3.421 1.533zM139.508 143.612c-2.045-2.238-3.55-4.912-4.487-8.016a.49.49 0 0 1 .33-.618.49.49 0 0 1 .618.329c2.536 8.396 9.516 13.578 20.177 14.999a.485.485 0 0 1 .419.557.485.485 0 0 1-.557.418c-7.171-.957-12.741-3.57-16.499-7.681z"></path><path d="M123.025 135.032a.51.51 0 0 1-.125-.496c.082-.245.301-.401.559-.342.251.065.503.129.753.205l.363.099c30.995 8.356 71.293 44.596 91.763 82.49 5.385 9.978 8.93 19.217 10.516 27.453q.218 1.056.318 1.474a.494.494 0 0 1-.947.278c-1.284-3.907-2.974-7.736-6.053-13.668-3.547-6.839-8.526-14.427-8.57-14.5-2.509-3.76-6.225-9.063-9.249-13.201-1.298-1.766-3.021-3.936-4.543-5.848-.61-.766-1.198-1.496-1.724-2.17-.05-.055-5.206-6.487-12.247-14.103-15.23-16.411-27.76-26.227-31.883-29.45a188 188 0 0 0-16.696-11.699 108 108 0 0 0-6.184-3.568c-2.835-1.504-4.156-2.107-5.868-2.816a.5.5 0 0 1-.189-.132zm65.668 45.44c-18.374-20.099-40.353-36.586-59.145-43.37a110 110 0 0 1 6.241 3.607c2.914 1.838 8.975 5.643 16.787 11.762 4.129 3.24 16.71 13.089 31.991 29.555 7.003 7.549 12.248 14.103 12.298 14.158.526.674 1.114 1.404 1.724 2.17 1.527 1.919 3.262 4.101 4.571 5.88 3.08 4.21 6.718 9.404 9.271 13.236.045.062 5.089 7.783 8.625 14.598 1.485 2.863 2.649 5.238 3.605 7.374-1.882-6.777-4.961-14.145-9.196-21.984-6.881-12.741-16.229-25.455-26.772-36.986"></path><path d="M197.309 273.386a.47.47 0 0 1-.124-.384c2.526-24.419 9.329-51.107 19.76-77.616 1.906-8.949 5.279-18.708 10.059-28.996a.48.48 0 0 1 .433-.283.5.5 0 0 1 .449.257c4.786 8.863 5.809 16.199 2.795 20.109-1.376 1.789-4.22 3.619-9.998 2.339a361 361 0 0 0-2.787 6.871c-1.66 7.831-2.174 15.033-1.509 21.395 11.976 22.226 14.682 41.273 7.221 50.956-5.006 6.5-14.014 8.399-26.045 5.493a.5.5 0 0 1-.248-.147zm18.672-72.751c-9.277 24.651-15.374 49.324-17.771 72.04 11.416 2.666 19.917.857 24.615-5.237 7.222-9.375 4.476-28.057-7.36-49.969a.4.4 0 0 1-.051-.18c-.546-5.068-.348-10.646.573-16.648zm11.496-32.924c-3.385 7.394-6.035 14.501-7.916 21.211.125-.296.245-.586.365-.888a.5.5 0 0 1 .575-.288c4.381 1.052 7.627.404 9.391-1.888 2.632-3.413 1.718-10.158-2.415-18.158z"></path><path d="M122.546 134.916a.5.5 0 0 1-.115-.461.495.495 0 0 1 .595-.352c.655.16 1.309.331 1.975.514 19.552 4.879 42.425 4.697 66.305-.526a.6.6 0 0 1 .219.004c12.002 2.887 28.307 17.366 36.356 32.275.07.139.081.299.009.443-8.978 19.331-12.957 36.75-11.501 50.366a.496.496 0 0 1-.349.522.51.51 0 0 1-.581-.238c-20.119-37.252-60.372-73.454-90.714-81.888a76 76 0 0 1-1.975-.513.5.5 0 0 1-.236-.147zm68.852.155c-20.829 4.548-40.905 5.274-58.71 2.17 28.804 11.594 63.662 44.026 82.524 77.71-.816-13.375 3.198-30.012 11.676-48.342-7.945-14.573-23.8-28.659-35.49-31.538"></path><path d="M189.069 180.781a.497.497 0 0 1-.006-.662c4.664-5.202 14.267-14.933 27.776-28.131a.487.487 0 0 1 .697.007c.18.209.184.511-.008.697-13.49 13.182-23.081 22.901-27.726 28.087a.49.49 0 0 1-.733.002M155.718 151.136a.5.5 0 0 1-.129-.402.485.485 0 0 1 .557-.419c12.295 1.647 28.863-1.778 47.926-9.916a.49.49 0 0 1 .644.259.487.487 0 0 1-.259.645c-19.226 8.208-35.973 11.661-48.444 9.982a.5.5 0 0 1-.3-.155zM201.921 332.102a.5.5 0 0 1-.099-.17c-5.473-15.113-7.073-35.488-4.644-58.935a.48.48 0 0 1 .211-.352.46.46 0 0 1 .399-.071c11.629 2.8 20.282 1.021 25.03-5.141 4.899-6.357 5.207-16.992 1.218-30.011-4.791-4.807-7.729-11.637-8.629-20.138a.48.48 0 0 1 .349-.522.484.484 0 0 1 .58.238c3.782 7.009 6.643 13.694 8.552 19.88a24.7 24.7 0 0 0 6.879 4.8c.098.046.178.12.227.211 19.246 35.64 23.616 66.166 11.702 81.641-7.963 10.335-22.32 13.356-41.522 8.724a.47.47 0 0 1-.248-.148zm-3.815-58.437c-2.323 22.931-.745 42.862 4.558 57.69 18.667 4.443 32.581 1.533 40.243-8.426 11.663-15.143 7.284-45.196-11.703-80.429a26 26 0 0 1-5.761-3.762c3.576 12.617 3.038 22.963-1.842 29.303-4.93 6.397-13.739 8.34-25.489 5.63zm18.66-53.731c1.03 6.13 3.241 11.248 6.533 15.208-1.628-4.802-3.805-9.895-6.533-15.208"></path><path d="M196.229 296.415a.49.49 0 0 1-.116-.448.496.496 0 0 1 .596-.364c14.131 3.408 24.659 1.239 30.443-6.266 8.781-11.399 5.446-34.08-8.899-60.669a.493.493 0 0 1 .202-.671.49.49 0 0 1 .67.202c14.548 26.946 17.841 50.027 8.816 61.74-6.035 7.838-16.917 10.127-31.453 6.624a.5.5 0 0 1-.247-.147z"></path><path d="M197.89 316.065a.494.494 0 0 1 .48-.812c16.542 3.988 28.866 1.444 35.643-7.354 10.275-13.342 6.392-39.867-10.393-70.957a.49.49 0 0 1 .202-.671.493.493 0 0 1 .671.201c16.976 31.436 20.828 58.373 10.308 72.03-7.034 9.135-19.706 11.794-36.657 7.704a.5.5 0 0 1-.248-.147z"></path><path d="M85.014 113.491a57 57 0 0 1-3.176-3.783.49.49 0 0 1-.022-.569.5.5 0 0 1 .53-.213c21.653 5.221 46.724 19.628 70.845 39.338 23.35 15.448 47.301 40.53 61.862 66.39 6.29 8.935 11.998 18.064 16.942 27.224a.48.48 0 0 1-.079.57.49.49 0 0 1-.573.104c-9.106-4.313-14.614-13.025-15.933-25.192-.393-.739-.803-1.473-1.213-2.207-17.293-24.561-39.021-47.659-61.568-66.092-10.369-6.847-20.612-11.785-29.842-14.005-15.773-4.249-28.718-11.661-37.779-21.571zm-1.503-3.254c8.961 11.065 22.597 19.305 39.526 23.866 7.2 1.734 15.012 5.103 23.016 9.734-21.438-16.551-43.29-28.64-62.542-33.6m133.051 108.321c1.43 10.493 6.169 18.178 13.796 22.384-4.125-7.521-8.754-15.011-13.796-22.384m-28.006-38.336c-8.294-9.072-17.308-17.384-26.435-24.383 16.514 14.535 32.304 31.385 45.936 49.268-5.7-8.638-12.327-17.051-19.489-24.884z"></path><path d="M105.63 128.623a.49.49 0 0 1-.116-.449.496.496 0 0 1 .596-.363c37.27 8.99 87.974 54.024 113.01 100.392.131.243.04.54-.202.671a.503.503 0 0 1-.671-.201c-24.921-46.157-75.334-90.97-112.37-99.903a.46.46 0 0 1-.247-.147"></path><path d="M92.048 120.058a.49.49 0 0 1-.115-.449.495.495 0 0 1 .595-.363c43.523 10.492 102.72 63.082 131.952 117.223a.496.496 0 0 1-.872.47c-29.124-53.936-88.029-106.305-131.318-116.74a.47.47 0 0 1-.247-.147z"></path><path d="M185.935 184.995c-.389-.425-.439-.889 3.129-4.875a.5.5 0 0 1 .699-.039.5.5 0 0 1 .04.699c-1.264 1.404-2.002 2.306-2.43 2.878.341-.222.799-.538 1.398-.984a.497.497 0 0 1 .693.101.496.496 0 0 1-.102.693c-2.477 1.835-3.033 1.958-3.421 1.533zM139.508 143.612c-2.045-2.238-3.55-4.912-4.487-8.016a.49.49 0 0 1 .33-.618.49.49 0 0 1 .618.329c2.536 8.396 9.516 13.578 20.177 14.999a.485.485 0 0 1 .419.557.485.485 0 0 1-.557.418c-7.171-.957-12.741-3.57-16.499-7.681z"></path><path d="M192.14 181.304a100 100 0 0 1-2.782 2.159.49.49 0 0 1-.659-.065c-.189-.257-.146-.568.069-.73a99 99 0 0 0 2.75-2.13c.209-.168.831.598.616.772zM104.317 190.742c-12.087-22.361-14.804-41.443-7.336-51.144 5.005-6.5 14.013-8.399 26.051-5.499 17.302 4.673 37.319 5.292 58.386 1.872 1.513-1.701 4.457-3.249 10.113-1.88a.496.496 0 0 1-.014.963 185 185 0 0 1-9.573 1.839c-2.763 3.578-1.683 10.692 2.841 19.082a.54.54 0 0 1 .042.38.47.47 0 0 1-.244.291c-27.87 14.889-55.449 26.728-79.746 34.244a.5.5 0 0 1-.508-.135zm76.287-53.643c-20.853 3.27-40.654 2.59-57.816-2.041-11.617-2.799-20.27-1.02-25.018 5.142-7.185 9.33-4.503 27.855 7.163 49.606 24.017-7.463 51.228-19.147 78.751-33.821-4.298-8.12-5.382-14.903-3.073-18.903zm8.189-2.485c-2.26-.219-4.127.13-5.516 1.037 1.829-.314 3.672-.664 5.516-1.037"></path><path d="M99.584 137.603a.49.49 0 0 1-.123-.419.495.495 0 0 1 .579-.394c25.31 4.774 53.793 4.203 82.374-1.661a.49.49 0 0 1 .579.386.49.49 0 0 1-.386.58c-28.7 5.895-57.32 6.466-82.753 1.668a.5.5 0 0 1-.27-.148zM93.04 157.628a.47.47 0 0 1-.126-.337c0-.272.223-.498.5-.492 26.831.16 56.712-4.653 86.415-13.909a.484.484 0 0 1 .618.329.5.5 0 0 1-.317.618c-29.805 9.281-59.787 14.108-86.718 13.95a.49.49 0 0 1-.365-.164zM131.26 228.026c-10.599-11.593-20.018-24.423-27.02-37.381a.48.48 0 0 1-.022-.421.46.46 0 0 1 .308-.282c24.237-7.494 51.756-19.313 79.577-34.168a.5.5 0 0 1 .671.201c7.928 14.691 23.953 28.949 35.722 31.779.134.036.254.13.325.257a.5.5 0 0 1 .017.415c-12.084 28.812-19.921 58.096-22.669 84.675a.48.48 0 0 1-.211.351.45.45 0 0 1-.4.071c-20.36-4.909-45.573-22.84-66.292-45.503zm-25.864-37.318c20.533 37.654 61.484 74.101 91.839 81.731 2.797-26.364 10.555-55.339 22.467-83.869-11.83-3.169-27.57-17.179-35.56-31.701-27.511 14.663-54.71 26.347-78.74 33.833z"></path><path d="M130.78 227.515a.484.484 0 0 1 .038-.702c18.147-16.013 40.087-35.63 63.447-56.727a.5.5 0 0 1 .697.031.497.497 0 0 1-.038.702c-23.367 21.102-45.319 40.719-63.454 56.733a.493.493 0 0 1-.69-.037M164.139 257.167a.49.49 0 0 1-.082-.536c10.439-22.896 25.332-48.821 43.067-74.958a.49.49 0 0 1 .685-.129.49.49 0 0 1 .129.686c-17.697 26.091-32.563 51.958-42.983 74.814a.49.49 0 0 1-.65.243.5.5 0 0 1-.16-.114zM197.309 273.386a.47.47 0 0 1-.124-.384c2.526-24.419 9.329-51.107 19.76-77.616 1.906-8.949 5.279-18.708 10.059-28.996a.48.48 0 0 1 .433-.283.5.5 0 0 1 .449.257c4.786 8.863 5.809 16.199 2.795 20.109-1.376 1.789-4.22 3.619-9.998 2.339a361 361 0 0 0-2.787 6.871c-1.66 7.831-2.174 15.033-1.509 21.395 11.976 22.226 14.682 41.273 7.221 50.956-5.006 6.5-14.014 8.399-26.045 5.493a.5.5 0 0 1-.248-.147zm18.672-72.751c-9.277 24.651-15.374 49.324-17.771 72.04 11.416 2.666 19.917.857 24.615-5.237 7.222-9.375 4.476-28.057-7.36-49.969a.4.4 0 0 1-.051-.18c-.546-5.068-.348-10.646.573-16.648zm11.496-32.924c-3.385 7.394-6.035 14.501-7.916 21.211.125-.296.245-.586.365-.888a.5.5 0 0 1 .575-.288c4.381 1.052 7.627.404 9.391-1.888 2.632-3.413 1.718-10.158-2.415-18.158z"></path><path d="M220.27 270.7a.48.48 0 0 1-.123-.283c-2.567-26.065.43-54.897 8.661-83.354a.49.49 0 0 1 .613-.333.49.49 0 0 1 .333.612c-8.197 28.346-11.182 57.043-8.633 82.988a.496.496 0 0 1-.445.542.5.5 0 0 1-.406-.16z"></path><path d="M226.808 250.67a.47.47 0 0 1-.119-.242c-4.088-21.449-2.482-46.045 4.651-71.134a.497.497 0 0 1 .607-.339.49.49 0 0 1 .339.606c-7.085 24.943-8.69 49.379-4.631 70.685a.493.493 0 0 1-.387.58.5.5 0 0 1-.454-.15zM52.594 199.39c-19.313-35.738-23.69-66.258-11.769-81.739 7.963-10.335 22.314-13.35 41.516-8.718a.5.5 0 0 1 .276.178c8.941 11.638 22.913 20.283 40.415 25 .257.07.41.337.351.595a.485.485 0 0 1-.589.358c-11.629-2.8-20.282-1.021-25.03 5.141-7.223 9.375-4.476 28.057 7.354 49.963a.48.48 0 0 1 .023.421.46.46 0 0 1-.309.282c-21.365 6.611-39.309 9.608-51.908 8.669a.48.48 0 0 1-.33-.162zm29.35-89.54c-18.712-4.469-32.649-1.571-40.336 8.41-11.65 15.12-7.287 45.143 11.66 80.332 12.343.857 29.858-2.065 50.694-8.475-11.778-22.034-14.398-40.888-6.987-50.514 3.944-5.111 10.367-7.385 18.803-6.702-14.389-5.027-25.99-12.911-33.833-23.051"></path><path d="M83.545 196.267c-14.62-27.039-17.913-50.12-8.894-61.839 6.035-7.837 16.912-10.132 31.453-6.624a.496.496 0 0 1 .363.596.496.496 0 0 1-.596.364c-14.131-3.408-24.659-1.24-30.437 6.272-8.78 11.399-5.452 34.086 8.905 60.663a.493.493 0 0 1-.794.568"></path><path d="M66.249 199.08c-17.049-31.539-20.901-58.465-10.376-72.127 7.029-9.13 19.707-11.794 36.658-7.705a.496.496 0 0 1 .363.596.496.496 0 0 1-.596.364c-16.54-3.988-28.865-1.445-35.642 7.353-10.275 13.343-6.392 39.868 10.393 70.958.13.242.04.54-.202.671a.49.49 0 0 1-.599-.098z"></path><path d="M44.99 114.06a.496.496 0 0 1-.017-.652.503.503 0 0 1 .7-.063c13.386 11.15 32.178 19.258 54.363 23.438a.495.495 0 0 1-.186.974c-22.35-4.211-41.303-12.398-54.814-23.648zM34.486 146.222a.48.48 0 0 1-.075-.553.48.48 0 0 1 .66-.219c14.648 7.303 34.822 11.228 58.337 11.364a.49.49 0 0 1 .491.501.49.49 0 0 1-.495.487c-23.668-.131-43.994-4.099-58.769-11.467a.4.4 0 0 1-.143-.107zM95.875 259.275c-17.005-18.601-32.123-39.187-43.354-59.979a.5.5 0 0 1 .476-.73c12.47.934 30.295-2.057 51.54-8.626a.486.486 0 0 1 .581.238c20.55 38.069 62.128 75.028 92.672 82.395.24.052.407.284.378.525-2.411 23.295-.828 43.527 4.593 58.496a.49.49 0 0 1-.1.498.5.5 0 0 1-.485.15c-32.65-7.874-73.072-36.634-106.3-72.979zM53.82 199.614c32.981 60.558 98.872 119.168 147.694 131.458-5.192-14.93-6.701-34.822-4.383-57.636-30.645-7.625-72.058-44.441-92.7-82.425-20.692 6.369-38.156 9.335-50.617 8.609z"></path><path d="M116.203 241.447c-12.842-14.046-24.256-29.589-32.724-45.28a.493.493 0 0 1 .201-.671.49.49 0 0 1 .671.202c24.915 46.162 75.334 90.97 112.37 99.903a.494.494 0 0 1-.232.959c-24.66-5.946-55.189-27.661-80.281-55.106z"></path><path d="M104.398 251.866c-14.994-16.4-28.324-34.548-38.223-52.88a.49.49 0 0 1 .202-.67.49.49 0 0 1 .67.201c29.124 53.935 88.029 106.305 131.318 116.74a.494.494 0 0 1-.233.959c-28.783-6.939-64.434-32.3-93.728-64.343z"></path><path d="M95.086 258.446c-.185-.227-.165-.539.05-.713 7.403-6.168 19.746-16.853 35.676-30.919a.49.49 0 0 1 .69.036.49.49 0 0 1-.037.702c-15.943 14.066-28.292 24.768-35.707 30.936a.49.49 0 0 1-.678-.048zM148.658 306.049a.46.46 0 0 1-.125-.372c.972-11.965 6.343-28.925 15.517-49.057a.506.506 0 0 1 .655-.249.5.5 0 0 1 .242.661c-9.133 20.027-14.47 36.877-15.436 48.724a.5.5 0 0 1-.859.299zM201.921 332.102a.5.5 0 0 1-.099-.17c-5.473-15.113-7.073-35.488-4.644-58.935a.48.48 0 0 1 .211-.352.46.46 0 0 1 .399-.071c11.629 2.8 20.282 1.021 25.03-5.141 4.899-6.357 5.207-16.992 1.218-30.011-4.791-4.807-7.729-11.637-8.629-20.138a.48.48 0 0 1 .349-.522.484.484 0 0 1 .58.238c3.782 7.009 6.643 13.694 8.552 19.88a24.7 24.7 0 0 0 6.879 4.8c.098.046.178.12.227.211 19.246 35.64 23.616 66.166 11.702 81.641-7.963 10.335-22.32 13.356-41.522 8.724a.47.47 0 0 1-.248-.148zm-3.815-58.437c-2.323 22.931-.745 42.862 4.558 57.69 18.667 4.443 32.581 1.533 40.243-8.426 11.663-15.143 7.284-45.196-11.703-80.429a26 26 0 0 1-5.761-3.762c3.576 12.617 3.038 22.963-1.842 29.303-4.93 6.397-13.739 8.34-25.489 5.63zm18.66-53.731c1.03 6.13 3.241 11.248 6.533 15.208-1.628-4.802-3.805-9.895-6.533-15.208"></path><path d="M196.229 296.415a.49.49 0 0 1-.116-.448.496.496 0 0 1 .596-.364c14.131 3.408 24.659 1.239 30.443-6.266 8.781-11.399 5.446-34.08-8.899-60.669a.493.493 0 0 1 .202-.671.49.49 0 0 1 .67.202c14.548 26.946 17.841 50.027 8.816 61.74-6.035 7.838-16.917 10.127-31.453 6.624a.5.5 0 0 1-.247-.147z"></path><path d="M197.89 316.065a.494.494 0 0 1 .48-.812c16.542 3.988 28.866 1.444 35.643-7.354 10.275-13.342 6.392-39.867-10.393-70.957a.49.49 0 0 1 .202-.671.493.493 0 0 1 .671.201c16.976 31.436 20.828 58.373 10.308 72.03-7.034 9.135-19.706 11.794-36.657 7.704a.5.5 0 0 1-.248-.147z"></path><path d="M238.796 327.784c-9.97-14.646-16.408-34.467-18.656-57.372a.503.503 0 0 1 .444-.542.503.503 0 0 1 .542.444c2.232 22.738 8.606 42.403 18.449 56.86a.497.497 0 0 1-.132.686.486.486 0 0 1-.635-.076zM246.369 292.622c-9.641-10.545-16.414-25.037-19.679-42.192a.484.484 0 0 1 .393-.574.48.48 0 0 1 .574.392c3.551 18.658 11.274 34.114 22.35 44.694.174.191.208.5.015.698a.5.5 0 0 1-.698.017 66 66 0 0 1-2.962-3.029zM122.544 134.916a.5.5 0 0 1-.115-.461.495.495 0 0 1 .595-.352c.655.16 1.309.331 1.975.514 19.552 4.879 42.425 4.697 66.305-.526a.6.6 0 0 1 .219.004c12.002 2.887 28.307 17.366 36.356 32.275.07.139.081.299.009.443-8.978 19.331-12.957 36.75-11.501 50.366a.496.496 0 0 1-.349.522.51.51 0 0 1-.581-.238c-20.119-37.252-60.372-73.454-90.714-81.888a77 77 0 0 1-1.975-.513.5.5 0 0 1-.236-.147zm68.852.155c-20.829 4.548-40.905 5.274-58.71 2.17 28.804 11.594 63.662 44.026 82.524 77.71-.816-13.375 3.198-30.012 11.676-48.342-7.945-14.573-23.8-28.659-35.49-31.538"></path><path d="M85.012 113.491a57 57 0 0 1-3.176-3.783.49.49 0 0 1-.022-.569.5.5 0 0 1 .53-.213c21.653 5.221 46.724 19.628 70.845 39.338 23.35 15.448 47.301 40.53 61.862 66.39 6.29 8.935 11.998 18.064 16.942 27.224a.48.48 0 0 1-.079.57.49.49 0 0 1-.573.104c-9.106-4.313-14.614-13.025-15.933-25.192-.393-.739-.803-1.473-1.213-2.207-17.293-24.561-39.021-47.659-61.568-66.092-10.369-6.847-20.612-11.785-29.842-14.005-15.773-4.249-28.718-11.661-37.779-21.571zm-1.503-3.254c8.961 11.065 22.597 19.305 39.526 23.866 7.2 1.734 15.013 5.103 23.016 9.734-21.437-16.551-43.289-28.64-62.542-33.6M216.56 218.558c1.43 10.493 6.169 18.178 13.796 22.384-4.125-7.521-8.754-15.011-13.796-22.384m-28.006-38.336c-8.294-9.072-17.308-17.384-26.435-24.383 16.515 14.535 32.304 31.385 45.936 49.268-5.7-8.638-12.327-17.051-19.489-24.884z"></path><path d="M105.628 128.622a.49.49 0 0 1-.116-.449.496.496 0 0 1 .596-.363c37.27 8.99 87.974 54.024 113.01 100.392.131.243.04.54-.202.671a.503.503 0 0 1-.671-.201c-24.921-46.157-75.334-90.97-112.37-99.903a.46.46 0 0 1-.247-.147"></path><path d="M92.046 120.059a.49.49 0 0 1-.115-.449.495.495 0 0 1 .596-.363c43.523 10.492 102.719 63.082 131.951 117.223a.493.493 0 0 1-.201.671.497.497 0 0 1-.671-.201c-29.124-53.936-88.029-106.305-131.318-116.74a.47.47 0 0 1-.247-.147z"></path></g><defs><clipPath id="WarpHole_svg__a"><path d="m180.965-11 195.416 213.75-180.964 165.443L0 154.443z" fill="#fff"></path></clipPath></defs></svg>